<?xml version="1.0" encoding="UTF-8" standalone="no"?>
<!-- Created with Inkscape (http://www.inkscape.org/) -->

<svg
   width="202.17114mm"
   height="51.589211mm"
   viewBox="0 0 202.17114 51.589211"
   version="1.1"
   id="svg5"
   xml:space="preserve"
   inkscape:version="1.2.2 (732a01da63, 2022-12-09)"
   sodipodi:docname="Zeichnung.svg"
   xmlns:inkscape="http://www.inkscape.org/namespaces/inkscape"
   xmlns:sodipodi="http://sodipodi.sourceforge.net/DTD/sodipodi-0.dtd"
   xmlns="http://www.w3.org/2000/svg"
   xmlns:svg="http://www.w3.org/2000/svg"><sodipodi:namedview
     id="namedview7"
     pagecolor="#505050"
     bordercolor="#eeeeee"
     borderopacity="1"
     inkscape:showpageshadow="0"
     inkscape:pageopacity="0"
     inkscape:pagecheckerboard="0"
     inkscape:deskcolor="#505050"
     inkscape:document-units="mm"
     showgrid="false"
     inkscape:zoom="1.0859962"
     inkscape:cx="415.28691"
     inkscape:cy="215.47037"
     inkscape:window-width="1920"
     inkscape:window-height="1017"
     inkscape:window-x="3832"
     inkscape:window-y="1069"
     inkscape:window-maximized="1"
     inkscape:current-layer="layer1" /><defs
     id="defs2" /><g
     inkscape:label="Ebene 1"
     inkscape:groupmode="layer"
     id="layer1"
     transform="translate(-3.582614,-4.8992847)"><path
       style="fill:#ffffff;fill-opacity:1;stroke-width:0.0424998"
       d="M 74.620891,56.480711 C 34.948707,56.39862 6.1169677,56.171673 3.858862,55.923711 l -0.2762481,-0.03034 0.2125009,-0.03056 C 9.1412592,55.094133 200.99048,55.093107 205.56252,55.862075 l 0.19125,0.03211 -0.255,0.03071 c -1.66643,0.200854 -18.91511,0.372696 -50.10716,0.499194 -9.93298,0.04031 -68.770091,0.08173 -80.770719,0.05691 z m 38.738489,-3.121529 c -1.34555,-0.09352 -1.81587,-0.196815 -3.65497,-0.802702 -2.78058,-0.916047 -4.20414,-1.675287 -5.12788,-2.734904 -0.14677,-0.168367 -0.54643,-0.592999 -0.88811,-0.943617 -1.30276,-1.33687 -1.51983,-1.696833 -2.11434,-3.506227 -0.40506,-1.232797 -0.60695,-2.104407 -0.82198,-3.54873 -0.26389,-1.772443 -0.008,-3.973858 0.713,-6.136918 1.1426,-3.427384 2.37782,-4.889357 5.69308,-6.738222 2.65809,-1.482382 7.43352,-2.158763 10.62117,-1.504365 0.35063,0.07197 0.77138,0.155649 0.93499,0.185936 3.21414,0.594858 6.08044,2.529253 7.52344,5.07738 0.11252,0.19869 0.28452,0.495119 0.3822,0.658747 0.0977,0.163627 0.24082,0.412246 0.31802,0.552496 0.0772,0.14025 0.23546,0.414528 0.35167,0.609519 0.99828,1.675057 1.41755,5.158644 0.92741,7.705754 -0.069,0.358693 -0.14653,0.881663 -0.17222,1.162163 -0.14767,1.611966 -0.75223,3.061694 -2.03812,4.887468 -1.28356,1.822459 -3.73608,3.627403 -5.57116,4.100119 -0.10518,0.02709 -0.45899,0.132329 -0.78624,0.233856 -1.39548,0.432907 -2.11518,0.617668 -2.82622,0.725505 -0.44075,0.06688 -2.5932,0.07725 -3.46374,0.01675 z m 2.54998,-6.202688 c 1.58185,-0.211622 2.57491,-0.8296 3.89243,-2.422257 1.36006,-1.644069 1.80059,-4.711247 1.04305,-7.262165 -0.24345,-0.819813 -1.35475,-2.355233 -2.23142,-3.083056 -2.48053,-2.05935 -7.37295,-1.461464 -9.36142,1.144026 -1.79549,2.352649 -2.00069,6.03266 -0.47435,8.507208 1.40553,2.278686 4.21527,3.506412 7.13171,3.116244 z m 22.31236,5.734481 c -0.39776,-0.06547 -0.41119,-0.08856 -1.28274,-2.206781 -0.19717,-0.479182 -0.55731,-1.29199 -0.8003,-1.806235 -0.67035,-1.418592 -1.42297,-3.289504 -1.93552,-4.811445 -0.34617,-1.027899 -0.5771,-1.626139 -0.92694,-2.401234 -0.25624,-0.567747 -0.51277,-1.147016 -0.57009,-1.287266 -0.0573,-0.14025 -0.31547,-0.704431 -0.57369,-1.253746 -0.26769,-0.569437 -0.65658,-1.501118 -0.90471,-2.167483 -0.24013,-0.644839 -0.67238,-1.683124 -0.96428,-2.316234 -0.43732,-0.948549 -0.60099,-1.364855 -0.94407,-2.401235 -0.51934,-1.568903 -0.50295,-1.529197 -0.89549,-2.167482 -1.09171,-1.775203 -0.8534,-2.483834 0.80914,-2.405981 0.31556,0.01476 1.41524,0.0448 2.44372,0.06673 1.87455,0.03993 3.39084,0.126793 3.59303,0.205746 0.24275,0.0948 0.30283,0.237946 0.84198,2.006004 0.18962,0.621868 0.35515,1.050442 0.66308,1.716821 0.50165,1.085602 1.39567,3.441255 1.87224,4.933138 0.19436,0.608434 0.56588,1.699114 0.82562,2.423734 0.25975,0.724612 0.66597,1.939051 0.90275,2.698726 0.55713,1.78753 0.61126,1.908529 0.85524,1.911548 0.29626,0.0037 0.38371,-0.143823 0.93744,-1.580742 0.51404,-1.333962 0.52433,-1.366824 0.87807,-2.804764 0.36502,-1.483785 0.3474,-1.433029 0.92906,-2.676752 0.43151,-0.922667 0.50848,-1.127963 0.91925,-2.45182 0.40509,-1.305579 0.48957,-1.53212 0.87656,-2.350486 0.47985,-1.014753 0.55486,-1.213716 0.82199,-2.180651 0.55293,-2.001433 0.25392,-1.854613 3.82608,-1.878707 1.40249,-0.0095 2.74428,-0.01868 2.98177,-0.02037 1.53152,-0.0113 1.63977,0.511875 0.55127,2.664085 -0.30191,0.596941 -0.41792,0.888668 -0.66759,1.678741 -0.27666,0.875462 -0.36262,1.081895 -1.01772,2.44373 -0.64583,1.342554 -0.7463,1.582735 -1.03118,2.464982 -0.67927,2.103712 -1.99741,5.353289 -2.94793,7.26745 -0.49345,0.993715 -0.86864,1.822947 -1.20137,2.655191 -0.2661,0.665611 -0.65981,1.593165 -0.87492,2.061239 -0.2151,0.468065 -0.43197,0.961258 -0.48193,1.095964 -0.05,0.134714 -0.27964,0.689329 -0.5104,1.232494 -0.23075,0.543159 -0.44227,1.057714 -0.47003,1.143459 -0.10286,0.317695 -0.0613,0.311392 -2.06492,0.31334 -1.49877,0.0014 -1.93832,0.01654 -2.74123,0.09383 -1.278,0.123073 -1.47199,0.133496 -1.72124,0.09247 z m 61.49709,-0.05691 c -0.78006,-0.209865 -1.0588,-0.474555 -1.61502,-1.533612 -0.36096,-0.687283 -0.64653,-1.064932 -2.77974,-3.676231 -0.51529,-0.630778 -1.05285,-1.351051 -1.45905,-1.954982 -0.90179,-1.340767 -1.05207,-1.543819 -2.02809,-2.740351 -0.47629,-0.58389 -1.13357,-1.415817 -1.46064,-1.848739 -1.40073,-1.854096 -1.44212,-1.739579 -1.35137,3.739094 0.0341,2.054507 0.0311,2.779267 -0.0149,3.606432 -0.0598,1.075607 -0.0461,1.436426 0.0848,2.248695 0.32723,2.028737 0.2326,2.11068 -2.44466,2.116976 -0.8298,0.0022 -1.97729,0.0186 -2.54999,0.03698 -2.26093,0.07256 -2.36844,-0.03757 -2.23261,-2.286732 0.0557,-0.920963 0.0567,-1.197823 0.008,-2.003619 -0.0736,-1.215797 -0.0228,-4.658535 0.10268,-6.949393 0.10064,-1.838227 0.0984,-4.073382 -0.005,-5.365395 -0.051,-0.634506 -0.0488,-0.834273 0.0191,-1.827494 l 0.0763,-1.115113 -0.11458,-1.529994 c -0.14311,-1.911017 -0.10043,-3.110434 0.13059,-3.667123 0.13136,-0.316574 0.58524,-0.357476 3.50349,-0.315696 2.43328,0.03484 2.30705,0.01823 2.4911,0.327845 0.0417,0.07012 0.30057,0.368733 0.5753,0.663568 0.27473,0.294842 0.64693,0.696466 0.82711,0.892499 0.31407,0.341693 1.21819,1.483246 2.51538,3.175938 0.33424,0.436126 0.76611,0.993774 0.95974,1.239205 0.1936,0.245437 0.60702,0.800059 0.91867,1.232494 0.75839,1.052295 0.94267,1.294471 1.89177,2.486233 0.44676,0.560993 1.0665,1.373801 1.3772,1.806236 0.73486,1.022783 0.913,1.163904 1.22552,0.970876 0.17309,-0.106907 0.17524,-0.176914 0.0312,-1.013373 -0.1841,-1.068801 -0.19725,-1.311802 -0.12488,-2.307561 0.0623,-0.857548 0.0612,-0.965201 -0.024,-2.242214 -0.0867,-1.300021 -0.0873,-1.372811 -0.0194,-2.358923 0.0844,-1.225748 0.0845,-1.599773 6.6e-4,-2.568737 -0.20937,-2.417887 -0.0209,-2.587967 2.66059,-2.400541 0.72772,0.05086 1.06504,0.05506 1.61499,0.02001 1.53856,-0.09803 2.54578,0.02222 2.80939,0.335537 0.19507,0.231826 0.27968,1.56034 0.16136,2.533756 -0.19958,1.642077 -0.28519,6.839179 -0.15297,9.286187 0.10663,1.973228 0.13118,6.405807 0.0427,7.713696 -0.0463,0.68394 -0.0763,1.663705 -0.0788,2.57124 -0.007,2.664151 0.0769,2.614363 -4.63654,2.740233 -0.52472,0.01403 -0.78066,0.0037 -0.93499,-0.03787 z M 4.193683,52.798411 C 3.907861,52.68486 3.8301772,52.114456 3.89997,50.641728 3.937026,49.859738 3.93363,49.538345 3.881074,48.877996 3.789225,47.722321 3.797987,45.557741 3.901669,43.799279 3.995252,42.211694 4.008687,40.570244 3.940939,38.99681 3.908829,38.250282 3.909567,37.606719 3.943899,36.723077 3.978445,35.825714 3.978961,34.802981 3.946109,32.961846 3.907577,30.822968 3.910382,30.269313 3.964342,29.370621 3.999404,28.78625 4.028414,28.248097 4.028784,28.174709 c 0.00148,-0.350145 0.2464044,-0.419613 1.1751765,-0.333706 0.8784152,0.08126 1.4717906,0.0797 2.4540275,-0.0066 0.9099937,-0.07982 2.924226,0.0059 3.173856,0.134854 0.239275,0.123737 0.266682,0.410186 0.158084,1.652329 -0.08161,0.933386 -0.08489,1.106343 -0.04022,2.124978 0.02673,0.609896 0.06437,1.66789 0.08367,2.351107 0.01927,0.683209 0.04562,1.252757 0.05854,1.265674 0.244951,0.244943 0.554165,0.01898 1.192605,-0.871645 0.276484,-0.38568 0.938737,-1.227181 1.471665,-1.869983 0.532928,-0.64281 1.195158,-1.484302 1.471614,-1.869989 0.571665,-0.797529 0.628998,-0.868377 1.607109,-1.985999 0.843034,-0.963281 0.662422,-0.876046 2.005721,-0.968839 0.935977,-0.06467 1.032942,-0.06378 2.282827,0.01993 0.961672,0.06444 1.741248,0.08744 2.961098,0.08744 h 1.655762 l 0.130757,0.110029 c 0.183949,0.154785 0.193899,0.136715 -0.489119,0.88872 -1.001827,1.103015 -1.287907,1.4427 -1.950632,2.316229 -0.668661,0.881345 -0.817658,1.059522 -1.723591,2.061238 -0.590032,0.652413 -2.054596,2.384176 -3.234807,3.824971 -0.363794,0.444128 -0.841071,0.979233 -1.060614,1.189121 -0.9994,0.955493 -1.440405,1.45017 -1.440405,1.615695 0,0.261993 1.445505,2.071262 2.529792,3.166401 0.713718,0.720855 1.189505,1.25348 1.932874,2.163776 1.158236,1.418318 2.477641,2.925806 3.552672,4.0591 0.42303,0.44595 0.884977,0.944702 1.026556,1.108321 0.14157,0.163628 0.557021,0.593937 0.923214,0.956247 0.366199,0.36231 0.703294,0.730842 0.749111,0.818964 l 0.0833,0.160217 -0.109446,0.186769 c -0.209534,0.357541 -0.281068,0.368414 -1.69938,0.258178 -0.969599,-0.07536 -4.233408,-0.102442 -5.779959,-0.04798 l -1.06249,0.03742 -0.201421,-0.16492 c -0.435041,-0.356227 -1.448613,-1.564716 -2.155583,-2.570117 -0.644146,-0.916061 -0.762472,-1.058703 -1.49499,-1.802293 -0.877175,-0.890417 -2.285669,-2.529866 -2.525297,-2.939359 -0.280353,-0.479087 -0.587235,-0.458824 -0.630468,0.04163 -0.03115,0.360767 -0.08363,3.716063 -0.08697,5.561391 -0.003,1.778067 0.01189,1.714954 -0.431896,1.810088 -0.449176,0.0963 -2.2678264,0.116201 -3.1833193,0.03484 -0.7821003,-0.06953 -0.8420904,-0.06902 -1.9076285,0.01543 -1.2210679,0.09679 -1.1524412,0.095 -1.3062733,0.03388 z m 26.503752,0.0092 c -0.960645,-0.06503 -1.051874,-0.144414 -1.178778,-1.025878 -0.06975,-0.484327 -0.05536,-2.27822 0.02673,-3.3287 0.08852,-1.133374 0.09252,-3.32306 0.0085,-4.632471 -0.08483,-1.321273 -0.05832,-5.397771 0.04591,-7.054957 0.06791,-1.079409 0.06725,-1.142381 -0.0265,-2.719979 -0.104088,-1.751322 -0.10783,-1.477584 0.06422,-4.696218 0.0976,-1.825471 0.07614,-1.807785 2.037419,-1.678814 0.551907,0.03632 1.621526,0.062 2.610628,0.06267 1.094784,6.65e-4 2.022913,0.02509 2.677482,0.0702 0.939786,0.06474 1.071613,0.06437 2.128088,-0.0059 0.978413,-0.06526 1.50001,-0.07146 3.973724,-0.04724 2.369988,0.02318 2.96151,0.01713 3.527478,-0.03624 2.532915,-0.238838 2.444055,-0.350196 2.42411,3.038014 -0.01993,3.384077 0.294392,3.105481 -3.4016,3.015057 -1.292013,-0.03159 -2.102333,-0.03026 -2.934037,0.0044 -1.144159,0.0482 -2.651625,0.01477 -3.993419,-0.0886 -1.125461,-0.08671 -1.84873,-0.03462 -2.010335,0.144797 -0.262261,0.291174 -0.346381,2.740875 -0.111138,3.236608 0.154534,0.325653 0.223064,0.332702 3.141467,0.322921 2.060708,-0.0066 2.863387,-0.02775 4.504969,-0.11719 3.154022,-0.171791 3.78311,-0.116082 3.963973,0.351024 0.07777,0.200823 0.180015,1.430918 0.185013,2.225575 0.003,0.409058 0.01683,0.868059 0.03159,1.019994 0.201244,2.066133 -0.156061,2.386538 -2.391698,2.144658 l -1.115091,-0.120644 -1.505634,0.09154 c -1.491168,0.09067 -1.522968,0.09084 -3.311863,0.0186 -3.423612,-0.138242 -3.527479,-0.121862 -3.527479,0.556556 0,0.09985 -0.03137,0.410239 -0.06976,0.689765 -0.204964,1.493987 -0.08266,2.430295 0.32552,2.492013 0.488853,0.07391 2.911523,0.08659 3.745435,0.01956 0.746646,-0.06002 0.942244,-0.06053 1.848738,-0.0052 1.311205,0.07996 2.113788,0.07882 3.476228,-0.0052 1.85942,-0.114275 3.326087,0.02716 3.531435,0.34057 0.121583,0.185559 0.211144,2.038947 0.148053,3.063717 -0.122845,1.995255 -0.166278,2.254636 -0.402518,2.404106 -0.174921,0.110679 -4.762645,0.222067 -5.803204,0.140914 -1.097455,-0.0856 -1.384769,-0.08308 -2.719986,0.02391 -1.407924,0.11285 -3.39044,0.119862 -4.802727,0.01698 -0.978553,-0.0713 -1.032926,-0.07087 -2.656231,0.02111 -0.911477,0.05167 -1.733733,0.09059 -1.827228,0.08653 -0.0935,-0.0037 -0.380373,-0.02163 -0.637496,-0.03905 z m 128.179145,0 c -1.00947,-0.06836 -1.08393,-0.154342 -1.19416,-1.379596 -0.0577,-0.641776 -0.0203,-2.760355 0.0508,-2.875427 0.0832,-0.134691 0.0958,-3.19868 0.0186,-4.540776 -0.0919,-1.5971 -0.0586,-6.31054 0.0539,-7.628698 0.0475,-0.557199 0.0445,-0.798089 -0.0243,-1.912493 -0.11819,-1.916435 -0.0135,-5.988113 0.16604,-6.458201 0.13871,-0.363167 0.51366,-0.429195 1.92784,-0.339472 0.551,0.035 1.65734,0.06082 2.61062,0.06105 1.08305,3.33e-4 2.00037,0.02421 2.65624,0.06946 0.93982,0.06474 1.07157,0.06437 2.12809,-0.0059 0.98057,-0.0654 1.49179,-0.07138 3.95248,-0.04621 2.43619,0.02495 2.93152,0.01934 3.5892,-0.04045 2.49185,-0.226621 2.39985,-0.343966 2.38461,3.041181 -0.0151,3.345796 0.24129,3.050222 -2.61634,3.016489 -1.71463,-0.02023 -1.94758,-0.02023 -4.71747,6.57e-4 -0.91838,0.0066 -1.87288,-0.0087 -2.25248,-0.03676 -2.48498,-0.184053 -2.78801,-0.131031 -2.88407,0.504604 -0.2484,1.643612 -0.11773,2.952498 0.30565,3.061805 0.0975,0.02517 0.21542,0.05788 0.26219,0.07271 0.24503,0.0777 5.01235,0.0091 7.16013,-0.103004 4.24334,-0.221505 4.01644,-0.373345 4.10717,2.748472 0.0937,3.224989 0.0711,3.253238 -2.39784,2.988727 l -1.07547,-0.115219 -1.51701,0.09169 c -1.50239,0.09081 -1.53444,0.09098 -3.32325,0.01882 -2.31897,-0.09349 -3.16151,-0.08729 -3.31244,0.02443 -0.35094,0.259707 -0.48183,3.310992 -0.15518,3.617852 0.17921,0.168366 2.47651,0.231899 4.00546,0.110775 0.67158,-0.05322 0.9057,-0.05315 1.80623,0 1.33879,0.07935 2.1125,0.07819 3.4628,-0.0052 1.15527,-0.0713 1.59789,-0.06319 2.60807,0.0479 0.94408,0.103843 0.96618,0.122962 1.02355,0.885361 0.17191,2.284561 -0.003,4.687907 -0.35432,4.878484 -0.20036,0.108568 -4.75562,0.216672 -5.79045,0.137408 -1.12062,-0.08584 -1.40269,-0.08337 -2.74123,0.02391 -1.40917,0.112952 -3.39033,0.119869 -4.8054,0.01682 -0.98261,-0.0716 -1.0328,-0.07116 -2.63499,0.02126 -1.70449,0.09835 -1.72692,0.09877 -2.4833,0.04754 z m -73.694505,-0.08572 c -1.45296,-0.0837 -3.144876,-0.100314 -3.867474,-0.03794 -1.46573,0.126476 -2.283232,0.09737 -2.333589,-0.08308 -0.04266,-0.152902 -0.06961,-0.448866 -0.11161,-1.22684 -0.0541,-1.001496 -0.0911,-0.894418 0.68927,-1.993978 0.516149,-0.727285 1.717331,-2.571971 2.014985,-3.094475 0.06658,-0.116873 0.371021,-0.566308 0.676529,-0.998742 0.305516,-0.432435 0.896944,-1.35999 1.314291,-2.06124 0.417346,-0.701243 1.02175,-1.676614 1.343114,-2.167481 0.321365,-0.490876 0.638418,-0.988121 0.704571,-1.104993 0.17645,-0.311754 1.455241,-2.152269 2.133978,-3.071357 1.964902,-2.660667 2.190512,-3.072685 1.760277,-3.214617 -0.509956,-0.168234 -2.988601,-0.239784 -5.238085,-0.15119 -2.808646,0.110613 -4.144394,0.0921 -4.529631,-0.06274 -0.290938,-0.116969 -0.306299,-0.215239 -0.356021,-2.277084 -0.0234,-0.969592 -0.05499,-2.008306 -0.07035,-2.308234 -0.02974,-0.584303 0.06237,-0.962181 0.235124,-0.964189 0.03691,-3.32e-4 1.166792,-0.03455 2.510852,-0.07588 2.728622,-0.08387 7.66035,-0.09195 8.821937,-0.01447 0.535769,0.03573 0.902722,0.03226 1.699992,-0.01624 1.286764,-0.07817 2.194498,-0.07779 3.481728,0.0014 0.667884,0.04111 1.34276,0.05455 1.954988,0.03876 1.537723,-0.03956 1.684233,0.118555 1.510263,1.629593 l -0.0405,0.35129 -0.582938,0.859954 c -0.320612,0.472974 -0.912082,1.338081 -1.314386,1.92245 -0.402303,0.58437 -0.803816,1.185969 -0.892263,1.336871 -0.08845,0.150908 -0.412489,0.629028 -0.720102,1.062496 -0.353363,0.497954 -0.775191,1.171471 -1.145731,1.829354 -0.659375,1.170719 -0.592003,1.065886 -1.561779,2.430075 -0.393468,0.553485 -1.013919,1.490598 -1.378798,2.08249 -0.938176,1.52186 -1.75235,2.800438 -2.457925,3.859886 -1.143561,1.717102 -1.099943,1.742289 2.57039,1.484258 1.911933,-0.134411 1.950834,-0.135445 3.449323,-0.09192 1.255156,0.03646 1.645863,0.03322 2.273733,-0.01882 2.054096,-0.170196 1.970636,-0.266475 1.966496,2.268389 -0.007,4.379762 0.15406,4.067256 -2.019629,3.915307 -0.574382,-0.04015 -0.97436,-0.03927 -1.912486,0.0044 -1.114987,0.0516 -1.268058,0.04924 -2.5497,-0.0392 l -1.363488,-0.09408 -1.717737,0.08997 c -2.014182,0.105498 -3.143282,0.105948 -4.947716,0.0022 z m -30.028441,-0.01848 c -1.429634,-0.09977 -1.411187,-0.09063 -1.484125,-0.736962 -0.06784,-0.601274 -0.05979,-0.933739 0.06606,-2.721698 0.113987,-1.619341 0.117367,-1.750364 0.06843,-2.650156 -0.129983,-2.389365 -0.152939,-3.859613 -0.07999,-5.12218 0.06399,-1.107347 0.06408,-1.293895 7.39e-4,-2.401234 -0.06326,-1.108093 -0.06319,-1.300516 7.38e-4,-2.496863 0.105379,-1.961787 0.130417,-4.0465 0.07197,-5.994852 -0.09079,-3.028226 -0.04975,-3.081883 2.271835,-2.970354 3.115779,0.149676 4.861736,0.177948 6.233794,0.100946 1.17635,-0.06599 1.455367,-0.0688 2.209986,-0.02185 0.475012,0.0296 1.475658,0.06932 2.223656,0.08835 1.470764,0.03742 1.582425,0.05189 2.462863,0.319106 2.408083,0.730761 3.64858,1.548566 4.770344,3.144899 1.283376,1.826305 1.553718,2.502429 1.690868,4.228721 0.152629,1.921342 -0.1756,3.488703 -1.005806,4.80286 -0.733117,1.160458 -1.524783,1.995403 -2.287057,2.412063 -0.175312,0.09582 -0.51,0.281024 -0.743745,0.411545 -0.233752,0.130528 -0.496714,0.256148 -0.584378,0.279157 -0.612596,0.160771 -0.613992,0.161553 -0.53977,0.302039 0.149042,0.282131 2.700498,3.804361 3.121012,4.308509 0.09749,0.116872 0.423171,0.556741 0.723735,0.97749 0.533843,0.747303 0.780424,1.05524 1.855854,2.317631 1.210718,1.421205 1.125771,1.471111 -2.430688,1.4279 -1.579369,-0.01919 -2.747689,-0.01314 -3.366103,0.01734 -1.317574,0.06503 -1.247338,0.103726 -2.161539,-1.191644 -0.288686,-0.409059 -0.917671,-1.270164 -1.397746,-1.913564 -0.530174,-0.710558 -1.06308,-1.483158 -1.357406,-1.967951 -0.492513,-0.811206 -1.959573,-2.815724 -2.175476,-2.972457 -0.263013,-0.190932 -2.028723,-0.239082 -2.261332,-0.06171 -0.304542,0.232283 -0.383642,1.624117 -0.221107,3.890371 0.31588,4.404344 0.345155,4.332255 -1.707211,4.203654 -0.92049,-0.05765 -1.161093,-0.05868 -1.884,-0.0079 -0.966758,0.06798 -1.093648,0.06784 -2.084875,-0.0014 z M 65.377207,39.315775 c 2.744456,-0.177388 3.507623,-1.001887 3.207317,-3.465068 -0.259107,-2.125259 -1.242805,-2.64431 -4.886057,-2.578163 -3.173562,0.05765 -3.14106,0.03352 -2.864317,2.12599 0.07494,0.566691 0.09244,1.272451 0.06658,2.684524 -0.01941,1.061206 -0.009,1.078242 0.715364,1.166976 1.135293,0.139077 2.309185,0.15959 3.761135,0.06577 z m 1.466232,-14.583198 c -2.279047,-0.0059 -13.92609,-0.03159 -25.882326,-0.05654 C 19.311603,24.630858 5.1053742,24.567066 4.1351102,24.510634 l -0.5100005,-0.02967 0.8287517,-0.03122 C 9.3261382,24.265972 44.511112,23.917893 59.150994,23.908637 l 2.35874,-0.0014 -0.2975,-0.158954 c -1.347345,-0.719903 -2.184047,-1.828601 -2.514911,-3.33245 -0.119995,-0.545395 -0.119855,-11.1750876 0,-11.7000136 0.453325,-1.982908 1.832034,-3.347232 3.777322,-3.737929 0.574458,-0.115378 92.260615,-0.09866 92.816505,0.01693 1.90983,0.397095 3.32418,1.826834 3.71072,3.751105 0.11282,0.561605 0.0979,11.1745046 -0.0165,11.7270306 -0.29518,1.425833 -1.2842,2.705872 -2.5551,3.306909 l -0.25243,0.119382 2.98556,0.02598 c 1.64205,0.01432 4.7546,0.03639 6.91677,0.04909 15.0712,0.08827 35.36741,0.336894 38.80225,0.475306 l 0.78625,0.03167 -0.50999,0.02849 c -2.50902,0.140132 -106.711767,0.308033 -138.31534,0.222872 z m 70.919641,-4.375083 c 2.60254,-0.537572 4.51135,-2.171276 4.77674,-4.088302 0.025,-0.180672 0.0845,-0.567547 0.13232,-0.859733 0.70847,-4.33376 -2.72717,-7.3748746 -7.43883,-6.5845946 -2.67614,0.448867 -4.17884,1.8539126 -4.79495,4.4833326 -0.2954,1.260693 0.1159,3.704977 0.76479,4.544992 1.14595,1.483506 2.76082,2.349018 4.74483,2.54308 0.46571,0.04555 1.51541,0.02311 1.8151,-0.03876 z m -1.66634,-2.739326 c -3.26397,-0.503859 -3.55027,-5.348418 -0.36407,-6.16062 2.15106,-0.548319 3.84874,0.876444 3.77205,3.165663 -0.0682,2.037204 -1.49424,3.290382 -3.40798,2.994957 z m -65.747073,2.720583 c 1.40608,-0.129634 2.533778,-0.607665 3.389355,-1.436749 0.255985,-0.248059 0.253497,-0.285579 -0.042,-0.633864 -0.134138,-0.158099 -0.443146,-0.526506 -0.686694,-0.818691 -0.716529,-0.859643 -0.760264,-0.877912 -1.259289,-0.526085 -2.849784,2.009199 -5.675385,0.260717 -5.098884,-3.155203 0.358827,-2.126153 2.894037,-3.007432 4.86956,-1.692743 0.500294,0.332945 0.431808,0.362449 1.384253,-0.596514 1.060445,-1.067707 1.059714,-0.984281 0.01491,-1.7098456 -0.919021,-0.638225 -1.218359,-0.776557 -2.039988,-0.942679 -4.215522,-0.852332 -7.353941,1.7090046 -7.405073,6.0434596 l -0.01114,0.943366 0.244744,0.679998 c 0.569024,1.581001 0.957205,2.132412 2.032067,2.886573 0.546525,0.383458 0.777731,0.488048 1.611915,0.729138 0.949264,0.274343 1.803098,0.339847 2.996227,0.229839 z m 28.177318,0 c 1.401899,-0.129251 2.246745,-0.475336 3.311895,-1.356704 0.40629,-0.336187 0.45468,-0.222296 -0.66175,-1.557195 -0.66371,-0.793601 -0.77034,-0.851458 -1.10342,-0.598705 -2.785184,2.113456 -5.679153,0.539601 -5.264014,-2.862798 0.277031,-2.270432 2.832068,-3.257017 4.889318,-1.887933 0.468866,0.312019 0.606076,0.291889 0.958966,-0.140694 0.0902,-0.110568 0.40783,-0.441824 0.70586,-0.736135 0.77625,-0.766562 0.78978,-0.716492 -0.41437,-1.5337216 -1.097156,-0.744609 -1.916581,-0.986215 -3.336228,-0.983683 -3.632725,0.0066 -5.910953,2.3838056 -5.959066,6.2182766 l -0.01092,0.871248 0.24447,0.694916 c 0.83121,2.362806 2.047118,3.394595 4.556789,3.86681 0.292066,0.05492 1.514728,0.05868 2.08249,0.0066 z M 78.369063,20.1163 c 0.101528,-0.08057 0.125466,-1.283892 0.122816,-6.173087 -0.0022,-3.900315 -0.01247,-4.6210666 -0.07064,-4.8996546 l -0.0203,-0.09719 -1.479814,0.01218 c -1.178011,0.0097 -1.494142,0.02414 -1.550042,0.07049 -0.08203,0.06813 -0.10058,4.0795896 -0.02967,6.4228796 0.02119,0.699551 0.02199,1.497966 0.0022,1.806242 -0.03742,0.574168 0.02775,2.733649 0.08442,2.796666 0.09475,0.105423 2.814271,0.162232 2.941278,0.06141 z m 30.761597,-0.0096 c 0.68956,6.65e-4 1.57887,0.0091 1.97624,0.01898 1.0965,0.02716 1.05341,0.100906 0.98008,-1.677485 -0.047,-1.140986 -0.0482,-1.142388 -0.92744,-1.04408 -0.54055,0.06046 -3.69513,0.129385 -4.10012,0.08961 -0.38811,-0.03809 -0.37574,-0.003 -0.35124,-0.992512 0.0116,-0.471897 0.0194,-1.173553 0.0172,-1.559233 -0.002,-0.385688 -0.007,-1.853373 -0.0103,-3.261527 -0.007,-3.1243496 0.26359,-2.8427416 -2.63811,-2.7393256 -0.63081,0.02251 -0.59743,-0.144871 -0.54052,2.7104486 0.0477,2.391261 0.0523,3.010908 0.0405,5.330384 -0.004,0.806437 -0.006,1.571434 -0.004,1.699992 0.002,0.128565 -0.0114,0.463246 -0.0299,0.743746 -0.0482,0.733957 -0.15363,0.682625 1.37427,0.669686 0.66928,-0.0059 1.39857,0.0059 1.62064,0.02584 0.22205,0.01993 0.61411,0.02451 0.87123,0.01034 0.25712,-0.01424 1.03169,-0.02539 1.72124,-0.0248 z m 7.26746,0.02008 c 0.59827,0.02384 1.10084,0.02251 4.05342,-0.01078 2.47189,-0.02783 2.22246,0.04569 2.28639,-0.673724 0.0444,-0.499002 0.0264,-1.702952 -0.0274,-1.831908 -0.0634,-0.152201 -0.76533,-0.218775 -1.69092,-0.160394 -0.43832,0.0276 -0.91522,0.0296 -1.30652,0.0052 -0.36421,-0.02258 -0.79006,-0.02266 -1.04125,0 -1.69099,0.151722 -1.87507,0.03972 -1.76478,-1.073975 0.0698,-0.705198 -0.004,-0.657897 0.99579,-0.632299 1.02661,0.02628 1.67966,0.02687 2.40523,0.0022 0.31557,-0.01071 0.83314,-0.003 1.15017,0.01683 l 0.5764,0.03632 0.0879,-0.111795 c 0.18131,-0.230504 0.15733,-2.240043 -0.029,-2.426487 -0.10502,-0.105091 -0.39385,-0.109402 -2.91179,-0.04341 -2.43924,0.06392 -2.25249,0.131504 -2.25249,-0.815124 0,-0.918719 -0.36222,-0.815016 2.75818,-0.789645 l 2.6098,0.02126 0.11037,-0.11037 c 0.0799,-0.07992 0.11043,-0.154872 0.1106,-0.271671 0,-0.08872 0.007,-0.561597 0.0151,-1.050841 0.0241,-1.4451276 0.32129,-1.2899596 -2.426,-1.2665386 -2.90266,0.02473 -2.59197,0.02591 -4.15548,-0.01527 -2.12937,-0.05603 -2.00932,-0.07153 -2.06522,0.267375 -0.054,0.327683 -0.0894,2.2402786 -0.0518,2.7964366 0.0191,0.2805 0.0222,0.682117 0.007,0.892492 -0.0424,0.595162 -0.0501,2.620216 -0.0138,3.662495 0.0228,0.654118 0.0158,1.200797 -0.0228,1.786681 -0.1214,1.840323 -0.11388,1.85113 1.25401,1.803747 0.44411,-0.01536 1.04655,-0.01846 1.33873,-0.0066 z m 30.30337,-0.01912 c 0.79566,-0.02953 0.75924,0.01912 0.78175,-1.043297 0.0413,-1.95118 0.0796,-2.677423 0.14391,-2.730792 0.0766,-0.06356 3.67812,-0.07676 4.2408,-0.0155 0.72255,0.07864 0.74183,0.0423 0.75326,-1.419455 0.007,-0.97056 0.004,-1.017875 -0.0818,-1.132903 l -0.0896,-0.120038 -2.03534,0.02052 c -2.88356,0.02901 -2.75563,0.03078 -2.83929,-0.03876 -0.095,-0.07895 -0.0867,-1.87089 0.009,-1.966585 0.0424,-0.0423 0.39357,-0.05934 1.50874,-0.0733 2.17372,-0.02709 2.42294,-0.02605 3.04724,0.01247 0.83437,0.05159 0.79927,0.115226 0.7809,-1.415226 -0.0165,-1.3750616 0.17207,-1.2792196 -2.45965,-1.2502316 -0.74798,0.0083 -2.38485,0.01668 -3.63747,0.01875 -2.3507,0.0037 -2.33953,0.003 -2.39372,0.144811 -0.0575,0.150104 -0.11034,5.6176616 -0.0633,6.5449566 0.032,0.631605 0.0295,1.056067 -0.0102,1.652019 -0.0656,0.988482 0.003,2.634182 0.11367,2.745246 0.11352,0.113514 0.59294,0.127974 2.23074,0.06725 z M 83.852475,20.04934 c 0.04223,-0.04252 0.05041,-0.258982 0.03617,-0.955596 -0.05846,-2.856649 -0.09536,-2.68967 0.584989,-2.648695 0.556815,0.03352 0.76189,0.224304 1.465974,1.363688 0.236358,0.382491 1.336273,1.90968 1.54447,2.144451 l 0.134522,0.151684 1.56547,0.01009 c 2.16907,0.01402 2.146939,0.02628 1.439149,-0.795609 -0.457133,-0.530816 -2.240191,-2.926876 -2.399293,-3.224154 -0.03993,-0.07464 -0.0268,-0.09022 0.113986,-0.134863 2.992595,-0.949049 2.865794,-5.509609 -0.185949,-6.6882026 -0.86267,-0.33316 -0.811243,-0.327653 -3.203634,-0.342985 -1.180425,-0.0075 -2.492795,-0.02775 -2.916365,-0.04489 -1.479777,-0.05986 -1.357775,-0.635699 -1.328396,6.2701106 0.01247,2.935934 0.01226,3.04383 -0.008,3.960453 -0.0214,0.96889 -0.03654,0.929658 0.37325,0.968728 0.554289,0.05285 2.723662,0.02613 2.783644,-0.03425 z m 0.419548,-5.957419 c -0.386323,-0.0437 -0.394575,-0.06082 -0.379347,-0.786264 0.0066,-0.327247 -0.0037,-0.843618 -0.02392,-1.147495 -0.04717,-0.715622 -0.07285,-0.688642 0.700645,-0.737914 2.104406,-0.134072 2.705784,0.145084 2.788398,1.294359 0.08812,1.225784 -0.824773,1.633255 -3.085743,1.377314 z"
       id="path181"
       inkscape:export-filename="path181.svg"
       inkscape:export-xdpi="200"
       inkscape:export-ydpi="200" /></g></svg>
