<?xml version="1.0" encoding="UTF-8"?>
<svg id="Ebene_1" data-name="Ebene 1" xmlns="http://www.w3.org/2000/svg" viewBox="0 0 300 180">
  <defs>
    <style>
      .cls-1 {
        fill: none;
        stroke: #fff;
        stroke-miterlimit: 10;
        stroke-width: .75px;
      }

      .cls-2 {
        fill: #fff;
        stroke-width: 0px;
      }
    </style>
  </defs>
  <g>
    <path class="cls-2" d="m129.18,124.12c-1.98,0-3.79-.27-5.37-.81-1.59-.54-2.87-1.17-3.81-1.88-.95-.72-1.76-1.76-2.41-3.1-.66-1.34-.99-2.92-.99-4.68,0-.9.16-1.84.49-2.8.32-.96.78-1.79,1.36-2.47.58-.68,1.31-1.23,2.16-1.66.85-.42,1.55-.69,2.07-.79.46-.09.62-.15.67-.18-.04-.01-.14-.16-.47-.54-.34-.38-.68-.97-1.02-1.76-.34-.78-.51-1.69-.51-2.7,0-1.76.83-3.11,2.48-4.01,1.62-.88,3.46-1.33,5.47-1.33.98,0,1.92.15,2.79.46,1.18.41,1.38.45,1.42.45,0,0,.91-.12.91-.12.38,0,.8.18.8,1.02l.17,2.66c0,.78-.02,1.24-.06,1.41-.03.12-.14.33-.47.33-.24,0-.55-.23-1.01-.75-.42-.47-.86-.99-1.33-1.55-.46-.55-1.09-1.06-1.86-1.52-.77-.46-1.69-.69-2.73-.69s-1.87.31-2.47.92c-.62.62-.92,1.25-.92,1.91s.38,1.51,1.12,2.51c.75,1.02,1.53,1.93,2.32,2.71.86.85,2.18,2.11,3.83,3.66,1.72,1.62,3.59,3.25,5.55,4.83,2.48,1.99,3.04,2.31,3.15,2.32.16,0,.31-.1.46-.3.37-.48.56-1.31.56-2.5s-.14-2.08-.42-2.65c-.28-.57-.52-.92-.72-1.05-.22-.14-.51-.29-.88-.46-.37-.17-.68-.26-.96-.28-.31-.03-.54-.08-.69-.15-.12-.06-.28-.19-.28-.5s.14-.44.26-.49c.09-.04.28-.09.9-.09l6.21.08c.76,0,.92.34.92.63,0,.35-.3.6-.89.75-.16.04-.32.18-.49.42-.17.24-.26.55-.29.92-.03.39-.07.79-.13,1.18-.17,1.67-.4,2.82-.69,3.52-.29.68-.55,1.22-.76,1.62-.26.5-.29.62-.3.65,0,.07.21.41,2.42,1.71,1.66.98,3.35,1.87,5.01,2.64.54.25,1.12.38,1.74.38l1.49-.12c.59,0,.68.3.68.48,0,.47-.43.87-1.27,1.18-.8.29-1.77.44-2.87.44s-2.17-.14-3.18-.42c-1.01-.28-1.87-.61-2.57-.99-.7-.38-1.32-.77-1.85-1.16-.53-.39-.96-.73-1.28-1.01-.41-.35-.52-.38-.53-.38,0,0-.11.03-.52.38-.32.28-.75.62-1.28,1.02-.53.41-1.18.83-1.93,1.25-1.79.95-4.21,1.42-7.19,1.42Zm-5.16-17.36c-.88,0-1.85.54-2.87,1.61-1.03,1.07-1.55,2.48-1.55,4.18s.93,3.55,2.76,5.48c.87.93,2.12,1.7,3.7,2.3,1.59.61,3.19.91,4.77.91s2.94-.19,4.08-.56c1.14-.38,2.01-.75,2.57-1.12.8-.51.82-.68.82-.7,0,0-.11-.17-1.03-.82-.72-.51-1.9-1.42-3.59-2.77-1.68-1.34-3.05-2.52-4.09-3.49l-3.38-3.18c-.81-.76-1.27-1.2-1.4-1.33-.14-.15-.24-.22-.29-.26l-.25-.16c-.08-.07-.16-.09-.26-.09Z"/>
    <path class="cls-2" d="m129.31,95.55c.97,0,1.89.15,2.75.45.86.3,1.35.45,1.46.45l.92-.12c.44,0,.66.3.66.9l.17,2.67c0,.76-.02,1.22-.06,1.37-.04.16-.16.24-.35.24s-.5-.24-.92-.7c-.42-.47-.86-.99-1.33-1.55s-1.11-1.08-1.9-1.55c-.79-.47-1.72-.7-2.79-.7s-1.93.32-2.56.96c-.64.64-.96,1.3-.96,2s.38,1.56,1.15,2.59c.76,1.03,1.54,1.94,2.33,2.72.79.78,2.07,2.01,3.83,3.66,1.76,1.66,3.62,3.27,5.56,4.84,1.95,1.57,3.02,2.35,3.23,2.35s.39-.12.56-.35c.39-.5.58-1.35.58-2.57s-.15-2.12-.44-2.7c-.29-.59-.55-.95-.77-1.1-.22-.14-.52-.3-.9-.47-.38-.17-.71-.27-1-.29s-.51-.07-.64-.14c-.14-.06-.21-.19-.21-.39s.06-.32.19-.37c.13-.05.41-.08.85-.08l6.21.08c.53,0,.79.17.79.51,0,.29-.26.5-.79.63-.19.05-.38.21-.56.47-.18.26-.29.59-.31.98-.03.39-.07.78-.13,1.17-.17,1.65-.39,2.81-.69,3.49-.29.68-.54,1.22-.75,1.61-.21.39-.31.63-.31.7,0,.24.83.84,2.48,1.82,1.65.98,3.33,1.86,5.02,2.65.56.26,1.15.39,1.79.39l1.5-.12c.36,0,.54.12.54.35,0,.42-.4.77-1.19,1.06-.79.29-1.74.43-2.83.43s-2.15-.14-3.15-.41c-1-.27-1.85-.6-2.54-.98-.69-.38-1.31-.77-1.83-1.15-.53-.39-.95-.73-1.27-1-.32-.27-.52-.41-.6-.41s-.28.14-.6.41c-.32.27-.75.62-1.27,1.02-.53.41-1.17.82-1.92,1.23-1.78.94-4.15,1.41-7.13,1.41-1.97,0-3.75-.27-5.33-.8-1.58-.54-2.84-1.15-3.77-1.86-.93-.71-1.72-1.73-2.37-3.06-.65-1.33-.98-2.87-.98-4.62,0-.89.16-1.81.48-2.76.32-.95.76-1.76,1.33-2.43.57-.67,1.27-1.21,2.12-1.63.85-.42,1.53-.68,2.04-.78.51-.1.77-.19.77-.26s-.17-.29-.5-.67c-.33-.38-.66-.95-1-1.72-.34-.77-.5-1.65-.5-2.65,0-1.72.81-3.02,2.42-3.9,1.61-.88,3.41-1.31,5.41-1.31m1.52,25.83c1.6,0,2.97-.19,4.12-.57,1.15-.38,2.02-.76,2.6-1.14.58-.38.88-.64.88-.8,0-.1-.36-.41-1.08-.92-.72-.51-1.92-1.43-3.58-2.77-1.67-1.33-3.03-2.49-4.08-3.49-1.44-1.36-2.57-2.42-3.38-3.18-.8-.76-1.27-1.2-1.39-1.33s-.23-.22-.31-.27c-.08-.05-.17-.11-.25-.16-.08-.08-.19-.11-.33-.11-.92,0-1.91.55-2.96,1.65-1.05,1.1-1.58,2.52-1.58,4.27s.93,3.6,2.79,5.57c.89.94,2.14,1.72,3.75,2.33,1.61.62,3.22.92,4.81.92m-1.52-26.08c-2.03,0-3.9.45-5.53,1.34-1.69.92-2.55,2.3-2.55,4.12,0,1.02.18,1.95.52,2.75.35.81.69,1.39,1.04,1.79.17.19.27.32.34.4-.1.03-.24.06-.47.11-.53.11-1.24.38-2.11.81-.87.43-1.61,1-2.2,1.69-.59.69-1.05,1.53-1.38,2.51-.33.97-.49,1.93-.49,2.84,0,1.78.34,3.38,1,4.73.66,1.36,1.49,2.42,2.45,3.15.95.72,2.24,1.35,3.84,1.9,1.6.54,3.42.82,5.41.82,3,0,5.44-.48,7.24-1.44.76-.42,1.41-.84,1.95-1.26.51-.4.95-.74,1.28-1.03.26-.22.38-.31.44-.34.06.03.18.12.44.34.33.28.76.63,1.29,1.01.53.39,1.15.79,1.86,1.17.71.39,1.58.72,2.6,1,1.02.28,2.1.42,3.21.42s2.1-.15,2.92-.45c.9-.33,1.35-.76,1.35-1.29,0-.18-.08-.6-.79-.6l-1.52.12c-.58,0-1.14-.12-1.66-.37-1.66-.77-3.34-1.66-5-2.64-1.89-1.12-2.27-1.5-2.35-1.62.02-.06.08-.21.28-.57.21-.4.47-.94.76-1.63.3-.71.53-1.87.7-3.56.05-.37.1-.77.13-1.18.02-.34.11-.63.27-.86.15-.21.29-.33.42-.37.65-.16.98-.45.98-.87,0-.28-.14-.76-1.04-.76l-6.2-.08c-.64,0-.85.05-.96.1-.12.05-.34.2-.34.6s.19.55.36.62c.15.08.39.13.72.16.26.02.57.11.92.27.36.16.65.32.86.45.12.08.34.32.68,1,.27.55.41,1.42.41,2.59s-.18,1.96-.53,2.41c-.18.26-.32.26-.36.26-.08-.03-.6-.3-3.07-2.3-1.96-1.59-3.83-3.21-5.55-4.83-1.66-1.56-2.98-2.82-3.83-3.66-.78-.77-1.56-1.68-2.31-2.69-.73-.98-1.1-1.8-1.1-2.44s.29-1.22.89-1.82c.59-.6,1.37-.89,2.39-.89s1.92.23,2.66.67c.77.45,1.38.96,1.83,1.49.47.56.92,1.08,1.34,1.55.49.55.82.79,1.11.79.31,0,.52-.15.59-.42.03-.11.07-.39.07-1.43l-.17-2.68c0-.98-.57-1.13-.91-1.13l-.95.12s-.22-.05-1.34-.44c-.88-.31-1.84-.46-2.83-.46h0Zm1.52,25.83c-1.56,0-3.15-.3-4.72-.91-1.56-.59-2.79-1.36-3.65-2.27-1.81-1.91-2.73-3.72-2.73-5.39s.51-3.05,1.51-4.1c1-1.04,1.94-1.57,2.78-1.57.1,0,.14.03.17.05l.16.11.12.08s.12.08.27.24c.13.14.6.59,1.4,1.34l2.08,1.96,1.29,1.22c1.05.99,2.39,2.13,4.1,3.5,1.7,1.36,2.87,2.26,3.6,2.77.64.45.87.66.95.74-.06.06-.23.24-.74.57-.56.37-1.42.74-2.55,1.11-1.13.37-2.49.56-4.04.56h0Z"/>
  </g>
  <g>
    <path class="cls-1" d="m69.21,100.77c-1.48,0-2.66-.47-3.54-1.42-.87-.95-1.31-2.08-1.31-3.39s.45-2.46,1.36-3.45,2.1-1.47,3.58-1.47,2.73.43,3.73,1.28c1,.85,1.51,2.04,1.51,3.56s-.52,2.71-1.55,3.59c-1.03.87-2.29,1.31-3.77,1.31Zm-2.26-8.26c-.59.59-.88,1.57-.88,2.93s.4,2.48,1.19,3.36c.8.88,1.65,1.32,2.57,1.32s1.66-.31,2.22-.94.85-1.55.85-2.76-.35-2.32-1.04-3.31c-.69-.99-1.66-1.49-2.91-1.49-.75,0-1.42.3-2.01.89Z"/>
    <path class="cls-2" d="m69.21,100.77c-1.48,0-2.66-.47-3.54-1.42-.87-.95-1.31-2.08-1.31-3.39s.45-2.46,1.36-3.45,2.1-1.47,3.58-1.47,2.73.43,3.73,1.28c1,.85,1.51,2.04,1.51,3.56s-.52,2.71-1.55,3.59c-1.03.87-2.29,1.31-3.77,1.31Zm-2.26-8.26c-.59.59-.88,1.57-.88,2.93s.4,2.48,1.19,3.36c.8.88,1.65,1.32,2.57,1.32s1.66-.31,2.22-.94.85-1.55.85-2.76-.35-2.32-1.04-3.31c-.69-.99-1.66-1.49-2.91-1.49-.75,0-1.42.3-2.01.89Z"/>
  </g>
  <g>
    <path class="cls-1" d="m76.98,92.25l-.87.07c-.32,0-.48-.09-.48-.28,0-.26.06-.43.18-.52.12-.09.36-.13.73-.13h.46c.17,0,.28-.04.33-.12.04-.08.06-.21.06-.38,0-1.06.17-2.03.52-2.92.35-.89.78-1.59,1.3-2.11,1.07-1.11,2.05-1.67,2.95-1.67.33,0,.6.05.81.16.21.11.31.26.31.44,0,.06-.03.18-.08.38-.05.2-.08.32-.1.38-.01.06-.03.11-.04.14s-.03.08-.04.12-.03.08-.04.1c-.02.02-.03.05-.05.08-.02.03-.05.05-.08.06-.04.03-.1.04-.17.04s-.14-.05-.22-.15c-.22-.27-.6-.41-1.16-.41s-.99.15-1.3.46c-.31.3-.55.71-.71,1.21-.3.98-.46,2.07-.46,3.25v.54c0,.27.09.41.26.41,1.27,0,2.05-.1,2.32-.3.1-.06.18-.09.24-.09s.09.08.09.23-.1.41-.3.77c-.09.13-.27.2-.54.2l-1.69.02c-.23,0-.35.07-.35.22v1.26l.11,4.29c0,.77.1,1.27.3,1.52.23.3.59.46,1.06.46.25,0,.37.11.37.33,0,.14-.08.22-.24.22l-2.17-.11-1.61.11c-.22,0-.33-.1-.33-.3,0-.07.09-.14.27-.22s.36-.21.53-.4c.17-.2.26-.42.26-.66s0-.6-.02-1.06c-.04-1.42-.07-3.17-.07-5.27,0-.16-.03-.26-.08-.29-.05-.04-.15-.05-.29-.05Z"/>
    <path class="cls-2" d="m76.98,92.25l-.87.07c-.32,0-.48-.09-.48-.28,0-.26.06-.43.18-.52.12-.09.36-.13.73-.13h.46c.17,0,.28-.04.33-.12.04-.08.06-.21.06-.38,0-1.06.17-2.03.52-2.92.35-.89.78-1.59,1.3-2.11,1.07-1.11,2.05-1.67,2.95-1.67.33,0,.6.05.81.16.21.11.31.26.31.44,0,.06-.03.18-.08.38-.05.2-.08.32-.1.38-.01.06-.03.11-.04.14s-.03.08-.04.12-.03.08-.04.1c-.02.02-.03.05-.05.08-.02.03-.05.05-.08.06-.04.03-.1.04-.17.04s-.14-.05-.22-.15c-.22-.27-.6-.41-1.16-.41s-.99.15-1.3.46c-.31.3-.55.71-.71,1.21-.3.98-.46,2.07-.46,3.25v.54c0,.27.09.41.26.41,1.27,0,2.05-.1,2.32-.3.1-.06.18-.09.24-.09s.09.08.09.23-.1.41-.3.77c-.09.13-.27.2-.54.2l-1.69.02c-.23,0-.35.07-.35.22v1.26l.11,4.29c0,.77.1,1.27.3,1.52.23.3.59.46,1.06.46.25,0,.37.11.37.33,0,.14-.08.22-.24.22l-2.17-.11-1.61.11c-.22,0-.33-.1-.33-.3,0-.07.09-.14.27-.22s.36-.21.53-.4c.17-.2.26-.42.26-.66s0-.6-.02-1.06c-.04-1.42-.07-3.17-.07-5.27,0-.16-.03-.26-.08-.29-.05-.04-.15-.05-.29-.05Z"/>
  </g>
  <g>
    <path class="cls-1" d="m88.39,82.99l.19-19.65c0-.71-.12-1.35-.35-1.92-.23-.57-.49-.92-.76-1.04-.28-.12-.89-.19-1.85-.19-.34,0-.51-.11-.51-.32s.02-.37.07-.46c.05-.09.15-.18.3-.26.15-.08.34-.14.55-.21.89-.18,1.82-.51,2.77-.97,1.51-.71,2.5-1.06,2.96-1.06.37,0,.55.29.55.88,0,.12-.03.48-.09,1.06-.18,1.82-.28,3.81-.28,5.96v2.59l-.09,6.15v13.78c0,.65.05,1.18.16,1.59.11.42.46.82,1.06,1.2.6.39,1.44.58,2.52.58.15,0,.29.08.42.23.12.16.19.31.19.46,0,.43-.48.65-1.43.65l-4.67-.32c-.8,0-1.57.06-2.29.19-.72.12-1.2.18-1.43.18s-.42-.05-.55-.16c-.14-.11-.21-.25-.21-.42s.07-.31.21-.42c.14-.11.36-.19.67-.25.92-.25,1.48-.62,1.66-1.13.18-.51.28-1.21.28-2.1l-.05-1.2v-3.42Z"/>
    <path class="cls-2" d="m88.39,82.99l.19-19.65c0-.71-.12-1.35-.35-1.92-.23-.57-.49-.92-.76-1.04-.28-.12-.89-.19-1.85-.19-.34,0-.51-.11-.51-.32s.02-.37.07-.46c.05-.09.15-.18.3-.26.15-.08.34-.14.55-.21.89-.18,1.82-.51,2.77-.97,1.51-.71,2.5-1.06,2.96-1.06.37,0,.55.29.55.88,0,.12-.03.48-.09,1.06-.18,1.82-.28,3.81-.28,5.96v2.59l-.09,6.15v13.78c0,.65.05,1.18.16,1.59.11.42.46.82,1.06,1.2.6.39,1.44.58,2.52.58.15,0,.29.08.42.23.12.16.19.31.19.46,0,.43-.48.65-1.43.65l-4.67-.32c-.8,0-1.57.06-2.29.19-.72.12-1.2.18-1.43.18s-.42-.05-.55-.16c-.14-.11-.21-.25-.21-.42s.07-.31.21-.42c.14-.11.36-.19.67-.25.92-.25,1.48-.62,1.66-1.13.18-.51.28-1.21.28-2.1l-.05-1.2v-3.42Z"/>
  </g>
  <g>
    <path class="cls-1" d="m103.95,92.05l-3.28.09c-1.23,0-1.85-.21-1.85-.62s.23-.7.69-.86c.03,0,.09-.02.19-.05.71-.24,1.17-.62,1.39-1.11.21-.49.32-2.88.32-7.17v-4.07c0-.89-.11-1.6-.32-2.13-.22-.52-.42-.85-.6-.97-.18-.12-.5-.22-.95-.3-.45-.08-.77-.15-.97-.23-.2-.08-.3-.2-.3-.37s.04-.3.11-.39.23-.19.46-.3c.23-.11.47-.21.72-.3.86-.24,1.57-.49,2.13-.74.55-.25.98-.43,1.27-.55.29-.12.49-.21.58-.28.22-.09.48-.14.79-.14.46,0,.69.29.69.88l-.28,2.22v12.67c0,.92.15,1.65.44,2.17.29.52.6.85.92.97.32.12.7.2,1.13.23.43.03.71.05.83.05.43.06.65.28.65.65,0,.52-.26.79-.79.79l-.69-.05-3.28-.09Zm-2.38-25.8c-.45-.65-.67-1.18-.67-1.6s.27-.96.81-1.62c.54-.66,1.05-1,1.53-1s.95.32,1.41.95c.46.63.69,1.19.69,1.69s-.29,1.04-.88,1.64c-.59.6-1.02.9-1.29.9-.62,0-1.15-.32-1.6-.97Z"/>
    <path class="cls-2" d="m103.95,92.05l-3.28.09c-1.23,0-1.85-.21-1.85-.62s.23-.7.69-.86c.03,0,.09-.02.19-.05.71-.24,1.17-.62,1.39-1.11.21-.49.32-2.88.32-7.17v-4.07c0-.89-.11-1.6-.32-2.13-.22-.52-.42-.85-.6-.97-.18-.12-.5-.22-.95-.3-.45-.08-.77-.15-.97-.23-.2-.08-.3-.2-.3-.37s.04-.3.11-.39.23-.19.46-.3c.23-.11.47-.21.72-.3.86-.24,1.57-.49,2.13-.74.55-.25.98-.43,1.27-.55.29-.12.49-.21.58-.28.22-.09.48-.14.79-.14.46,0,.69.29.69.88l-.28,2.22v12.67c0,.92.15,1.65.44,2.17.29.52.6.85.92.97.32.12.7.2,1.13.23.43.03.71.05.83.05.43.06.65.28.65.65,0,.52-.26.79-.79.79l-.69-.05-3.28-.09Zm-2.38-25.8c-.45-.65-.67-1.18-.67-1.6s.27-.96.81-1.62c.54-.66,1.05-1,1.53-1s.95.32,1.41.95c.46.63.69,1.19.69,1.69s-.29,1.04-.88,1.64c-.59.6-1.02.9-1.29.9-.62,0-1.15-.32-1.6-.97Z"/>
  </g>
  <g>
    <path class="cls-1" d="m112.57,74.37l-1.85.14c-.68,0-1.02-.2-1.02-.6,0-.55.13-.92.39-1.11.26-.18.78-.28,1.55-.28h.97c.37,0,.6-.08.69-.25.09-.17.14-.44.14-.81,0-2.25.37-4.32,1.11-6.22.74-1.89,1.66-3.4,2.77-4.51,2.28-2.37,4.38-3.56,6.29-3.56.71,0,1.29.11,1.73.35.45.23.67.55.67.95,0,.12-.05.39-.16.81-.11.42-.18.69-.21.81-.03.12-.06.22-.09.3s-.06.16-.09.25-.06.16-.09.21c-.03.05-.07.1-.11.16-.05.06-.1.11-.16.14-.09.06-.22.09-.37.09s-.31-.11-.46-.32c-.46-.59-1.29-.88-2.47-.88s-2.11.32-2.77.97c-.66.65-1.16,1.51-1.5,2.59-.65,2.1-.97,4.41-.97,6.93v1.16c0,.59.18.88.55.88,2.71,0,4.36-.22,4.95-.65.22-.12.39-.18.51-.18s.18.16.18.49-.22.87-.65,1.64c-.18.28-.57.42-1.16.42l-3.61.05c-.49,0-.74.16-.74.46v2.68l.23,9.15c0,1.63.22,2.71.65,3.24.49.65,1.25.97,2.27.97.52,0,.78.23.78.69,0,.31-.17.46-.51.46l-4.62-.23-3.42.23c-.46,0-.69-.21-.69-.65,0-.15.19-.31.58-.46s.76-.44,1.13-.86c.37-.42.55-.89.55-1.41s-.02-1.28-.05-2.26c-.09-3.02-.14-6.76-.14-11.23,0-.34-.05-.55-.16-.62-.11-.08-.32-.11-.62-.11Z"/>
    <path class="cls-2" d="m112.57,74.37l-1.85.14c-.68,0-1.02-.2-1.02-.6,0-.55.13-.92.39-1.11.26-.18.78-.28,1.55-.28h.97c.37,0,.6-.08.69-.25.09-.17.14-.44.14-.81,0-2.25.37-4.32,1.11-6.22.74-1.89,1.66-3.4,2.77-4.51,2.28-2.37,4.38-3.56,6.29-3.56.71,0,1.29.11,1.73.35.45.23.67.55.67.95,0,.12-.05.39-.16.81-.11.42-.18.69-.21.81-.03.12-.06.22-.09.3s-.06.16-.09.25-.06.16-.09.21c-.03.05-.07.1-.11.16-.05.06-.1.11-.16.14-.09.06-.22.09-.37.09s-.31-.11-.46-.32c-.46-.59-1.29-.88-2.47-.88s-2.11.32-2.77.97c-.66.65-1.16,1.51-1.5,2.59-.65,2.1-.97,4.41-.97,6.93v1.16c0,.59.18.88.55.88,2.71,0,4.36-.22,4.95-.65.22-.12.39-.18.51-.18s.18.16.18.49-.22.87-.65,1.64c-.18.28-.57.42-1.16.42l-3.61.05c-.49,0-.74.16-.74.46v2.68l.23,9.15c0,1.63.22,2.71.65,3.24.49.65,1.25.97,2.27.97.52,0,.78.23.78.69,0,.31-.17.46-.51.46l-4.62-.23-3.42.23c-.46,0-.69-.21-.69-.65,0-.15.19-.31.58-.46s.76-.44,1.13-.86c.37-.42.55-.89.55-1.41s-.02-1.28-.05-2.26c-.09-3.02-.14-6.76-.14-11.23,0-.34-.05-.55-.16-.62-.11-.08-.32-.11-.62-.11Z"/>
  </g>
  <g>
    <path class="cls-1" d="m126.85,90.25c-1.9-1.66-2.84-4.08-2.84-7.23s.87-5.8,2.61-7.93c1.74-2.13,4-3.19,6.77-3.19,1.3,0,2.47.23,3.54.69,1.06.46,1.89,1.03,2.47,1.69s1.08,1.36,1.48,2.1c.68,1.26,1.02,2.22,1.02,2.87,0,.55-.63.83-1.89.83h-11.88c-.25,0-.39.02-.44.07-.05.05-.07.19-.07.44,0,2.9.78,5.18,2.33,6.84,1.56,1.66,3.38,2.5,5.48,2.5,1.29,0,2.61-.35,3.95-1.04,1.34-.69,2.04-1.04,2.1-1.04.31,0,.46.14.46.42,0,.37-.34.87-1.02,1.5s-1.32,1.15-1.94,1.55c-1.48.96-3.22,1.43-5.22,1.43-2.71,0-5.02-.83-6.91-2.5Zm1.64-11.28l8.14-.28c.43,0,.7-.04.81-.12.11-.08.16-.22.16-.44,0-.93-.43-2-1.29-3.24-.86-1.23-2.07-1.85-3.61-1.85s-2.73.61-3.56,1.82c-.83,1.22-1.25,2.37-1.25,3.44,0,.43.2.65.6.65Z"/>
    <path class="cls-2" d="m126.85,90.25c-1.9-1.66-2.84-4.08-2.84-7.23s.87-5.8,2.61-7.93c1.74-2.13,4-3.19,6.77-3.19,1.3,0,2.47.23,3.54.69,1.06.46,1.89,1.03,2.47,1.69s1.08,1.36,1.48,2.1c.68,1.26,1.02,2.22,1.02,2.87,0,.55-.63.83-1.89.83h-11.88c-.25,0-.39.02-.44.07-.05.05-.07.19-.07.44,0,2.9.78,5.18,2.33,6.84,1.56,1.66,3.38,2.5,5.48,2.5,1.29,0,2.61-.35,3.95-1.04,1.34-.69,2.04-1.04,2.1-1.04.31,0,.46.14.46.42,0,.37-.34.87-1.02,1.5s-1.32,1.15-1.94,1.55c-1.48.96-3.22,1.43-5.22,1.43-2.71,0-5.02-.83-6.91-2.5Zm1.64-11.28l8.14-.28c.43,0,.7-.04.81-.12.11-.08.16-.22.16-.44,0-.93-.43-2-1.29-3.24-.86-1.23-2.07-1.85-3.61-1.85s-2.73.61-3.56,1.82c-.83,1.22-1.25,2.37-1.25,3.44,0,.43.2.65.6.65Z"/>
  </g>
  <g>
    <path class="cls-1" d="m150.1,102.69l.2-21.66c0-.78-.13-1.49-.38-2.12s-.54-1.01-.84-1.15c-.31-.14-.98-.21-2.04-.21-.38,0-.56-.12-.56-.36s.02-.41.07-.51c.05-.1.16-.19.33-.28.17-.08.37-.16.61-.23.99-.2,2.01-.56,3.06-1.07,1.66-.78,2.75-1.17,3.26-1.17.41,0,.61.32.61.97,0,.14-.03.53-.1,1.17-.2,2.01-.31,4.2-.31,6.57v2.85l-.1,6.78v15.19c0,.71.06,1.3.18,1.76.12.46.51.9,1.17,1.33.66.43,1.59.64,2.78.64.17,0,.32.09.46.25.14.17.21.34.21.51,0,.48-.53.71-1.58.71l-5.15-.36c-.89,0-1.73.07-2.53.21-.8.13-1.32.2-1.58.2s-.46-.06-.61-.18-.23-.27-.23-.46.07-.34.23-.46c.15-.12.4-.21.74-.28,1.02-.27,1.63-.69,1.84-1.25.2-.56.3-1.33.3-2.32l-.05-1.33v-3.77Z"/>
    <path class="cls-2" d="m150.1,102.69l.2-21.66c0-.78-.13-1.49-.38-2.12s-.54-1.01-.84-1.15c-.31-.14-.98-.21-2.04-.21-.38,0-.56-.12-.56-.36s.02-.41.07-.51c.05-.1.16-.19.33-.28.17-.08.37-.16.61-.23.99-.2,2.01-.56,3.06-1.07,1.66-.78,2.75-1.17,3.26-1.17.41,0,.61.32.61.97,0,.14-.03.53-.1,1.17-.2,2.01-.31,4.2-.31,6.57v2.85l-.1,6.78v15.19c0,.71.06,1.3.18,1.76.12.46.51.9,1.17,1.33.66.43,1.59.64,2.78.64.17,0,.32.09.46.25.14.17.21.34.21.51,0,.48-.53.71-1.58.71l-5.15-.36c-.89,0-1.73.07-2.53.21-.8.13-1.32.2-1.58.2s-.46-.06-.61-.18-.23-.27-.23-.46.07-.34.23-.46c.15-.12.4-.21.74-.28,1.02-.27,1.63-.69,1.84-1.25.2-.56.3-1.33.3-2.32l-.05-1.33v-3.77Z"/>
  </g>
  <g>
    <path class="cls-1" d="m166.49,112.73c-4.01,0-6.01-1.7-6.01-5.1,0-2.45,1.02-4.13,3.06-5.05,1.7-.71,4.3-1.36,7.8-1.94.1-.03.24-.06.41-.08.17-.02.35-.04.54-.08.19-.03.33-.07.44-.1.24-.1.36-.34.36-.71l.1-2.65c0-1.94-.56-3.34-1.68-4.2-1.12-.87-2.21-1.3-3.26-1.3-2.44,0-3.67,1.02-3.67,3.06l.2,1.83c0,.68-.31,1.02-.92,1.02-.48,0-1-.09-1.58-.26-1.05-.34-1.58-.92-1.58-1.73,0-1.33.89-2.59,2.68-3.8,1.78-1.2,3.58-1.81,5.38-1.81s3.21.17,4.23.51,1.78.72,2.27,1.15.88.99,1.14,1.71c.34.85.51,2.18.51,4s-.04,3.43-.12,4.84c-.09,1.41-.13,2.69-.13,3.85s.14,2.1.41,2.83c.27.73.59,1.2.97,1.4.37.21.75.32,1.12.36.92.07,1.38.34,1.38.82,0,.71-1.07,1.07-3.21,1.07-.89,0-1.64-.24-2.27-.71-.63-.48-1.08-.94-1.35-1.4-.27-.46-.42-.69-.46-.69-.04,0-.17.11-.41.33-.24.22-.57.48-.99.79-.43.3-.91.61-1.46.92-1.26.75-2.55,1.12-3.87,1.12Zm6.22-11.37l-.51.1c-.78.14-1.27.22-1.48.26-.2.04-.68.14-1.43.31s-1.27.32-1.55.46c-.29.14-.7.35-1.22.64s-.91.59-1.15.89c-.61.95-.92,1.95-.92,3.01s.34,1.93,1.02,2.63,1.56,1.05,2.63,1.05,1.92-.14,2.55-.41,1.1-.58,1.4-.92.54-.8.71-1.38c.2-.65.31-1.48.31-2.5v-3.67c0-.3-.12-.46-.36-.46Z"/>
    <path class="cls-2" d="m166.49,112.73c-4.01,0-6.01-1.7-6.01-5.1,0-2.45,1.02-4.13,3.06-5.05,1.7-.71,4.3-1.36,7.8-1.94.1-.03.24-.06.41-.08.17-.02.35-.04.54-.08.19-.03.33-.07.44-.1.24-.1.36-.34.36-.71l.1-2.65c0-1.94-.56-3.34-1.68-4.2-1.12-.87-2.21-1.3-3.26-1.3-2.44,0-3.67,1.02-3.67,3.06l.2,1.83c0,.68-.31,1.02-.92,1.02-.48,0-1-.09-1.58-.26-1.05-.34-1.58-.92-1.58-1.73,0-1.33.89-2.59,2.68-3.8,1.78-1.2,3.58-1.81,5.38-1.81s3.21.17,4.23.51,1.78.72,2.27,1.15.88.99,1.14,1.71c.34.85.51,2.18.51,4s-.04,3.43-.12,4.84c-.09,1.41-.13,2.69-.13,3.85s.14,2.1.41,2.83c.27.73.59,1.2.97,1.4.37.21.75.32,1.12.36.92.07,1.38.34,1.38.82,0,.71-1.07,1.07-3.21,1.07-.89,0-1.64-.24-2.27-.71-.63-.48-1.08-.94-1.35-1.4-.27-.46-.42-.69-.46-.69-.04,0-.17.11-.41.33-.24.22-.57.48-.99.79-.43.3-.91.61-1.46.92-1.26.75-2.55,1.12-3.87,1.12Zm6.22-11.37l-.51.1c-.78.14-1.27.22-1.48.26-.2.04-.68.14-1.43.31s-1.27.32-1.55.46c-.29.14-.7.35-1.22.64s-.91.59-1.15.89c-.61.95-.92,1.95-.92,3.01s.34,1.93,1.02,2.63,1.56,1.05,2.63,1.05,1.92-.14,2.55-.41,1.1-.58,1.4-.92.54-.8.71-1.38c.2-.65.31-1.48.31-2.5v-3.67c0-.3-.12-.46-.36-.46Z"/>
  </g>
  <g>
    <path class="cls-1" d="m192.98,112.12l-3.72-.2c-.88,0-2.06.03-3.52.1l-2.19.1c-.51,0-.76-.15-.76-.46s.08-.49.25-.56c.17-.07.38-.12.64-.15.25-.03.5-.14.74-.31.64-.41,1-1.64,1.07-3.69.07-2.06.1-3.41.1-4.05v-7.34c0-1.09-.19-1.82-.58-2.19-.39-.37-.93-.56-1.61-.56h-.51c-.65,0-.97-.19-.97-.56,0-.34.37-.56,1.1-.66s1.31-.21,1.73-.33c.42-.12.98-.32,1.68-.61.7-.29,1.26-.54,1.68-.74.42-.2.71-.31.84-.31h.1c.31,0,.46.21.46.61l-.1,2.19c0,.88.07,1.33.2,1.33s.27-.09.41-.26c.51-.71,1.19-1.33,2.04-1.84,1.53-.95,2.99-1.43,4.38-1.43s2.63.21,3.72.64,1.94.95,2.55,1.58c.61.63,1.12,1.35,1.53,2.17.68,1.36,1.02,2.75,1.02,4.18v.51l.05,2.7v5.2c0,1.29.18,2.18.54,2.68.36.49,1.22.84,2.57,1.05.68.1,1.02.36,1.02.77,0,.34-.34.51-1.02.51l-4.18-.26-3.92.2c-.68,0-1.02-.22-1.02-.66,0-.31.2-.51.61-.61l.66-.15c.75-.24,1.12-1.38,1.12-3.42v-6.88c0-2.62-.64-4.6-1.94-5.94-1.29-1.34-2.75-2.01-4.38-2.01s-2.99.39-4.08,1.17c-1.09.78-1.75,1.51-1.99,2.19-.24.68-.36,3.28-.36,7.8v1.94c0,1.7.18,2.96.54,3.77.36.82,1.15,1.28,2.37,1.38.34,0,.77.06,1.3.18s.79.32.79.59c0,.44-.32.66-.97.66Z"/>
    <path class="cls-2" d="m192.98,112.12l-3.72-.2c-.88,0-2.06.03-3.52.1l-2.19.1c-.51,0-.76-.15-.76-.46s.08-.49.25-.56c.17-.07.38-.12.64-.15.25-.03.5-.14.74-.31.64-.41,1-1.64,1.07-3.69.07-2.06.1-3.41.1-4.05v-7.34c0-1.09-.19-1.82-.58-2.19-.39-.37-.93-.56-1.61-.56h-.51c-.65,0-.97-.19-.97-.56,0-.34.37-.56,1.1-.66s1.31-.21,1.73-.33c.42-.12.98-.32,1.68-.61.7-.29,1.26-.54,1.68-.74.42-.2.71-.31.84-.31h.1c.31,0,.46.21.46.61l-.1,2.19c0,.88.07,1.33.2,1.33s.27-.09.41-.26c.51-.71,1.19-1.33,2.04-1.84,1.53-.95,2.99-1.43,4.38-1.43s2.63.21,3.72.64,1.94.95,2.55,1.58c.61.63,1.12,1.35,1.53,2.17.68,1.36,1.02,2.75,1.02,4.18v.51l.05,2.7v5.2c0,1.29.18,2.18.54,2.68.36.49,1.22.84,2.57,1.05.68.1,1.02.36,1.02.77,0,.34-.34.51-1.02.51l-4.18-.26-3.92.2c-.68,0-1.02-.22-1.02-.66,0-.31.2-.51.61-.61l.66-.15c.75-.24,1.12-1.38,1.12-3.42v-6.88c0-2.62-.64-4.6-1.94-5.94-1.29-1.34-2.75-2.01-4.38-2.01s-2.99.39-4.08,1.17c-1.09.78-1.75,1.51-1.99,2.19-.24.68-.36,3.28-.36,7.8v1.94c0,1.7.18,2.96.54,3.77.36.82,1.15,1.28,2.37,1.38.34,0,.77.06,1.3.18s.79.32.79.59c0,.44-.32.66-.97.66Z"/>
  </g>
  <g>
    <path class="cls-1" d="m227.94,111.86l-.15-1.89c0-.58-.15-.86-.46-.86-.1,0-.35.17-.74.51-.39.34-.84.72-1.35,1.15-.51.43-1.25.81-2.22,1.15-.97.34-2.01.51-3.13.51-3.16,0-5.62-1.05-7.39-3.13-1.77-2.09-2.65-4.69-2.65-7.8s1.1-5.9,3.29-8.39c2.19-2.48,5.22-3.72,9.1-3.72.88,0,2.04.25,3.49.74,1.44.49,2.23.74,2.37.74s.2-.61.2-1.83l.1-6.58c0-1.83-.1-3.13-.28-3.87-.19-.75-.48-1.24-.87-1.48s-.91-.36-1.55-.36h-.56c-.51,0-.81-.02-.92-.05-.1-.03-.15-.15-.15-.36v-.05c0-.24.17-.42.51-.54.34-.12,1.03-.34,2.07-.66,1.04-.32,1.85-.62,2.45-.89.59-.27,1.05-.47,1.35-.61.65-.34,1.1-.51,1.38-.51.41,0,.61.34.61,1.02,0,.1-.11,1.55-.33,4.33-.22,2.79-.33,5.03-.33,6.73l-.1,18.6c0,2.31.11,3.86.33,4.64s.71,1.29,1.45,1.53c.1.03.39.09.87.18s.82.19,1.02.3c.2.12.31.32.31.59,0,.41-1.31.71-3.92.92-.55.03-1.17.13-1.89.28-.71.15-1.16.23-1.33.23-.37,0-.56-.19-.56-.56Zm-12.54-18.58c-1.26,1.61-1.88,3.68-1.88,6.19s.79,4.86,2.37,7.03c1.58,2.18,3.61,3.26,6.09,3.26,1.53,0,2.92-.39,4.18-1.17s1.89-1.73,1.89-2.85l.05-8.72c0-2.07-.48-3.38-1.43-3.92-2.51-1.5-4.54-2.24-6.06-2.24-2.21,0-3.94.81-5.2,2.42Z"/>
    <path class="cls-2" d="m227.94,111.86l-.15-1.89c0-.58-.15-.86-.46-.86-.1,0-.35.17-.74.51-.39.34-.84.72-1.35,1.15-.51.43-1.25.81-2.22,1.15-.97.34-2.01.51-3.13.51-3.16,0-5.62-1.05-7.39-3.13-1.77-2.09-2.65-4.69-2.65-7.8s1.1-5.9,3.29-8.39c2.19-2.48,5.22-3.72,9.1-3.72.88,0,2.04.25,3.49.74,1.44.49,2.23.74,2.37.74s.2-.61.2-1.83l.1-6.58c0-1.83-.1-3.13-.28-3.87-.19-.75-.48-1.24-.87-1.48s-.91-.36-1.55-.36h-.56c-.51,0-.81-.02-.92-.05-.1-.03-.15-.15-.15-.36v-.05c0-.24.17-.42.51-.54.34-.12,1.03-.34,2.07-.66,1.04-.32,1.85-.62,2.45-.89.59-.27,1.05-.47,1.35-.61.65-.34,1.1-.51,1.38-.51.41,0,.61.34.61,1.02,0,.1-.11,1.55-.33,4.33-.22,2.79-.33,5.03-.33,6.73l-.1,18.6c0,2.31.11,3.86.33,4.64s.71,1.29,1.45,1.53c.1.03.39.09.87.18s.82.19,1.02.3c.2.12.31.32.31.59,0,.41-1.31.71-3.92.92-.55.03-1.17.13-1.89.28-.71.15-1.16.23-1.33.23-.37,0-.56-.19-.56-.56Zm-12.54-18.58c-1.26,1.61-1.88,3.68-1.88,6.19s.79,4.86,2.37,7.03c1.58,2.18,3.61,3.26,6.09,3.26,1.53,0,2.92-.39,4.18-1.17s1.89-1.73,1.89-2.85l.05-8.72c0-2.07-.48-3.38-1.43-3.92-2.51-1.5-4.54-2.24-6.06-2.24-2.21,0-3.94.81-5.2,2.42Z"/>
  </g>
</svg>