<?xml version="1.0" encoding="UTF-8" standalone="no"?>
<!-- Created with Inkscape (http://www.inkscape.org/) -->

<svg
   width="196.39075mm"
   height="50.175396mm"
   viewBox="0 0 196.39075 50.175396"
   version="1.1"
   id="svg5"
   xml:space="preserve"
   xmlns="http://www.w3.org/2000/svg"
   xmlns:svg="http://www.w3.org/2000/svg"><defs
     id="defs2" /><g
     id="layer1"
     transform="translate(-5.433849,-4.4486765)"><path
       style="fill:#000000;stroke-width:0.0413196"
       d="m 66.145099,54.602816 c -39.04757,-0.1092 -62.4013348,-0.3358 -60.6156978,-0.58817 4.9605348,-0.70106 177.5679588,-0.76528 194.9453888,-0.0725 6.3486,0.25309 -9.76376,0.46668 -46.93895,0.62223 -13.16753,0.055 -72.160682,0.0811 -87.390741,0.0385 z m 46.112571,-3.00218 c -2.96556,-0.15732 -7.10179,-1.7676 -8.61513,-3.35398 -0.22726,-0.23823 -0.66639,-0.69516 -0.97589,-1.0154 -1.2462,-1.28956 -1.44221,-1.60049 -1.94306,-3.08212 -1.279998,-3.78659 -1.328387,-6.4199 -0.18112,-9.85469 0.39415,-1.17998 0.58841,-1.66286 0.88893,-2.20957 0.26874,-0.48891 1.10042,-1.70415 1.29236,-1.88838 0.86605,-0.83123 3.08063,-2.29608 4.24133,-2.80544 2.6525,-1.16404 6.84521,-1.56938 9.75508,-0.94308 2.46762,0.53111 3.65144,0.99388 5.02032,1.9625 0.76491,0.54127 1.71743,1.46663 2.22729,2.16384 0.44062,0.60251 0.49289,0.68506 1.0605,1.67481 0.18898,0.32953 0.45162,0.78416 0.58365,1.01033 0.38067,0.65195 0.53703,1.10839 0.75096,2.19193 0.46961,2.37863 0.50288,3.54389 0.15305,5.36154 -0.0667,0.3464 -0.13278,0.76923 -0.14694,0.93969 -0.12829,1.54539 -0.3661,2.22244 -1.36415,3.8838 -1.52066,2.53134 -3.74239,4.35535 -6.11541,5.02065 -0.13636,0.0383 -0.54542,0.16223 -0.90903,0.27556 -2.11917,0.66046 -3.28956,0.79708 -5.72274,0.66801 z m 1.87292,-6.00806 c 1.81958,-0.15942 2.98364,-0.83641 4.27688,-2.4873 1.70655,-2.17851 1.74972,-6.30591 0.089,-8.50753 -1.46305,-1.93959 -2.82895,-2.65003 -5.07508,-2.63974 -4.20436,0.0193 -6.7816,2.66551 -6.78258,6.96422 -7.6e-4,4.07646 3.32264,7.03562 7.49179,6.67035 z m 22.11809,5.5374 c -0.38609,-0.0648 -0.42595,-0.12933 -1.12133,-1.8159 -0.26706,-0.64768 -0.68601,-1.60525 -0.93104,-2.12795 -0.68005,-1.4507 -1.39353,-3.22616 -1.87208,-4.6585 -0.31928,-0.95564 -0.541,-1.53329 -0.85258,-2.22121 -0.23161,-0.5113 -0.47366,-1.05983 -0.53791,-1.21892 -0.0642,-0.15907 -0.3228,-0.7231 -0.57461,-1.2534 -0.25179,-0.53028 -0.60713,-1.36701 -0.78964,-1.85937 -0.50108,-1.35181 -0.55084,-1.47242 -1.08526,-2.63063 -0.40815,-0.88463 -0.56665,-1.28953 -0.89764,-2.29323 -0.50109,-1.5195 -0.48655,-1.48428 -0.87016,-2.10731 -1.06834,-1.73506 -0.83018,-2.41619 0.81808,-2.33961 0.31305,0.0145 1.39661,0.0445 2.4079,0.0665 1.86585,0.0408 3.23751,0.12023 3.43499,0.19918 0.23199,0.0927 0.30051,0.2484 0.71535,1.62487 0.26535,0.88039 0.38269,1.19367 0.73317,1.95719 0.4999,1.08903 1.35793,3.35211 1.83293,4.83439 0.18934,0.59087 0.54127,1.62282 0.78207,2.29323 0.24079,0.67041 0.63985,1.86041 0.8868,2.64444 0.79546,2.52538 0.89731,2.55377 1.70693,0.47568 0.52469,-1.34672 0.53959,-1.39368 0.87812,-2.7689 0.36867,-1.49763 0.35355,-1.45389 0.92403,-2.67615 0.41889,-0.89748 0.49583,-1.10278 0.89357,-2.38411 0.3987,-1.2845 0.47311,-1.48283 0.88719,-2.36485 0.30865,-0.65743 0.4985,-1.12327 0.59866,-1.46892 0.0807,-0.27838 0.21234,-0.73393 0.29259,-1.01233 0.41506,-1.43985 0.22044,-1.36319 3.51087,-1.38311 1.38628,-0.008 2.71572,-0.018 2.95435,-0.0213 1.52849,-0.0212 1.63464,0.46274 0.56855,2.59233 -0.2841,0.5675 -0.4131,0.89293 -0.67152,1.69409 -0.29379,0.91076 -0.37334,1.10132 -0.97494,2.33542 -0.59964,1.23004 -0.68438,1.4328 -1.00161,2.39652 -0.34281,1.04146 -0.98662,2.74535 -1.74829,4.62693 -0.22978,0.56764 -0.67995,1.54602 -1.08368,2.35523 -0.48595,0.974 -0.82986,1.73315 -1.16051,2.56179 -0.25844,0.64769 -0.64525,1.55878 -0.85958,2.02465 -0.21433,0.46589 -0.44199,0.98651 -0.5059,1.15695 -0.0639,0.17045 -0.29178,0.71896 -0.50634,1.21893 -0.21456,0.49997 -0.41249,0.97723 -0.43983,1.06058 -0.10036,0.30611 -0.0902,0.30441 -1.73652,0.29135 -1.27762,-0.0101 -1.61911,9.9e-4 -2.68576,0.0922 -1.64125,0.13946 -1.68793,0.14196 -1.91942,0.10315 z m 59.78426,-0.0546 c -0.75675,-0.19759 -1.02128,-0.44782 -1.56816,-1.48341 -0.36492,-0.69103 -0.60827,-1.01311 -2.7233,-3.60411 -0.53055,-0.64997 -1.02605,-1.32075 -1.56764,-2.12222 -0.58374,-0.86387 -1.04061,-1.47747 -1.73816,-2.33455 -0.52043,-0.63948 -1.22184,-1.52832 -1.55866,-1.97522 -1.27528,-1.69205 -1.32625,-1.53775 -1.23778,3.74622 0.0337,2.02286 0.0312,2.71289 -0.0137,3.49505 -0.0581,1.01188 -0.044,1.41392 0.0746,2.14506 0.32832,2.02194 0.20092,2.12752 -2.53823,2.10342 -0.69313,-0.006 -1.73439,0.003 -2.31388,0.0226 -2.20193,0.0703 -2.30922,-0.0402 -2.17324,-2.23846 0.0551,-0.89195 0.056,-1.14299 0.007,-1.94932 -0.0727,-1.18935 -0.0215,-4.55431 0.10338,-6.78057 0.0979,-1.74697 0.0961,-3.80998 -0.005,-5.15671 -0.0507,-0.67767 -0.0489,-0.86318 0.0168,-1.78653 0.0732,-1.03034 0.0732,-1.03034 -0.0413,-2.64031 -0.16883,-2.37239 -0.0641,-3.5361 0.33329,-3.70213 0.33058,-0.13813 0.79103,-0.15306 3.41173,-0.11066 2.11267,0.0341 2.03171,0.0232 2.20111,0.29809 0.049,0.0796 0.34083,0.41422 0.64844,0.74375 0.30764,0.32953 0.67263,0.72223 0.81114,0.87268 0.13849,0.15046 0.56507,0.68037 0.94795,1.17759 0.38287,0.49725 0.78241,1.00634 0.88789,1.13134 0.1055,0.12498 0.4213,0.53404 0.70186,0.90902 0.28056,0.37497 0.64373,0.84912 0.80703,1.05365 0.1633,0.20452 0.5992,0.79024 0.96867,1.30156 0.6054,0.83785 1.7334,2.29945 2.23223,2.89236 0.10518,0.12499 0.45737,0.59777 0.78268,1.05062 0.77046,1.07252 0.92425,1.19854 1.23124,1.00892 0.17044,-0.10528 0.171,-0.15104 0.0139,-1.10284 -0.17192,-1.04114 -0.17853,-1.17104 -0.10763,-2.11364 0.0604,-0.80341 0.0593,-0.91625 -0.0221,-2.18993 -0.0848,-1.32618 -0.0849,-1.35704 -0.0112,-2.47917 0.0643,-0.97423 0.068,-1.23058 0.0258,-1.79739 -0.21726,-2.91961 -0.12302,-3.03599 2.32178,-2.86731 0.42816,0.0295 1.0977,0.0389 1.71475,0.0241 2.50917,-0.0605 2.8693,0.0421 2.97649,0.84815 0.0675,0.50767 0.0679,1.42362 7.6e-4,1.99506 -0.18748,1.59819 -0.27182,6.53773 -0.1515,8.87253 0.10674,2.07176 0.13252,6.39631 0.0457,7.67592 -0.0428,0.63263 -0.0736,1.62327 -0.077,2.47917 -0.0101,2.55044 0.0685,2.50443 -4.46802,2.6223 -0.53418,0.0139 -0.80197,0.003 -0.95036,-0.0345 z M 5.9219375,51.032186 c -0.2717283,-0.12152 -0.3419451,-0.66732 -0.2715303,-2.11059 0.036038,-0.73917 0.032905,-1.05187 -0.016839,-1.67345 -0.088947,-1.11155 -0.080164,-3.29917 0.020105,-4.99965 0.0918,-1.55733 0.1036262,-3.01485 0.037481,-4.61877 -0.032525,-0.78905 -0.032301,-1.4077 7.619e-4,-2.25283 0.033297,-0.84695 0.033598,-1.82822 0.00156,-3.59408 -0.045861,-2.49611 0.00985,-4.56632 0.1311751,-4.87281 0.07542,-0.19043 0.274342,-0.21471 1.1224083,-0.13702 0.8908415,0.0815 1.3117626,0.0807 2.3157022,-0.005 1.6017283,-0.13654 3.1920833,0.0231 3.2856333,0.32982 0.08595,0.28178 0.08621,0.45985 0.0023,1.39424 -0.08013,0.89085 -0.08336,1.05509 -0.0406,2.06288 0.02552,0.60223 0.0608,1.62781 0.07832,2.27907 0.03368,1.25256 0.04015,1.28872 0.236235,1.32622 0.214831,0.0411 0.430825,-0.16493 1.00941,-0.96268 0.300883,-0.41485 0.950727,-1.23959 1.444096,-1.83273 0.493376,-0.59315 1.117418,-1.38526 1.386755,-1.76024 0.564149,-0.78539 0.623172,-0.85824 1.578075,-1.94775 0.814623,-0.92946 0.650096,-0.85737 2.16181,-0.94721 0.665164,-0.0395 0.929382,-0.0342 2.03512,0.0406 0.932749,0.0631 1.696513,0.0864 2.871706,0.0873 1.600991,9.9e-4 1.600991,9.9e-4 1.714623,0.10126 0.16564,0.14579 0.161922,0.15275 -0.430589,0.8064 -1.07798,1.18922 -1.252647,1.39593 -1.88474,2.23069 -0.693214,0.91544 -0.841629,1.09325 -1.724838,2.06654 -0.588053,0.64802 -1.986014,2.29964 -3.167919,3.74271 -0.355132,0.4336 -0.82861,0.96326 -1.052185,1.17701 -1.00122,0.95723 -1.377506,1.38701 -1.377506,1.57332 0,0.21735 1.502944,2.07637 2.500614,3.09309 0.750837,0.76516 1.209834,1.27966 1.879957,2.10729 0.487625,0.60222 1.176831,1.42036 1.531574,1.81806 0.354743,0.3977 0.810531,0.91244 1.012867,1.14387 0.5068,0.57968 1.699347,1.85083 2.645223,2.81959 0.948282,0.97121 0.966976,0.99838 0.847799,1.23198 -0.189155,0.37077 -0.303854,0.38947 -1.720274,0.28026 -0.951657,-0.0734 -4.062181,-0.0994 -5.546182,-0.0462 -1.254993,0.0448 -1.093992,0.11567 -1.979676,-0.87044 -0.589312,-0.65614 -0.798944,-0.92808 -1.667221,-2.16283 -0.302125,-0.42964 -0.569109,-0.73751 -1.164239,-1.34255 -0.853879,-0.86809 -2.222045,-2.46136 -2.453993,-2.85773 -0.284237,-0.48574 -0.572772,-0.44732 -0.612759,0.0815 -0.03055,0.40396 -0.08029,3.59988 -0.08421,5.40926 -0.0038,1.68902 0.0086,1.63831 -0.416707,1.72611 -0.410347,0.0847 -2.3310286,0.0992 -3.1399678,0.0238 -0.7191534,-0.0671 -0.7782009,-0.0666 -1.7856906,0.0154 -1.2127584,0.0987 -1.1536192,0.0976 -1.3132708,0.0261 z m 25.9279855,0.0309 c -0.766561,-0.0338 -1.058485,-0.14105 -1.174668,-0.43141 -0.18662,-0.46641 -0.232641,-2.02228 -0.106703,-3.60722 0.105182,-1.32385 0.109041,-3.29721 0.0096,-4.94124 -0.04822,-0.79805 -0.06254,-1.39733 -0.04448,-1.85938 0.0147,-0.37496 0.02834,-1.40693 0.03032,-2.29322 0.0023,-1.06457 0.0269,-1.92819 0.07222,-2.54469 0.06696,-0.91072 0.06636,-0.97201 -0.02514,-2.54114 -0.101657,-1.74415 -0.104197,-1.56142 0.06491,-4.65566 0.09475,-1.73355 0.06201,-1.70825 2.041474,-1.57784 0.656662,0.0433 1.459256,0.0608 2.47917,0.054 1.109944,-0.008 1.791823,0.009 2.582472,0.0637 1.048063,0.0719 1.103568,0.0718 2.272568,-0.008 1.105374,-0.0748 1.393162,-0.078 3.7123,-0.0412 2.186977,0.0347 2.614325,0.0312 3.284908,-0.0262 2.607738,-0.22348 2.487017,-0.37007 2.46426,2.99179 -0.02193,3.24698 0.286231,2.98058 -3.346078,2.89218 -1.232643,-0.03 -2.028593,-0.029 -2.747746,0.003 -1.07651,0.0483 -2.17547,0.0281 -3.656879,-0.0676 -2.464551,-0.15904 -2.471735,-0.1535 -2.472291,1.90326 -3.51e-4,1.32091 0.07451,1.53939 0.558031,1.6283 0.488006,0.0897 5.777069,0.0238 7.678332,-0.0959 3.343975,-0.21036 3.251838,-0.27898 3.351359,2.49628 0.120877,3.37087 0.11562,3.37789 -2.335338,3.11364 -1.029302,-0.11098 -1.029302,-0.11098 -2.499836,-0.0214 -1.462905,0.0891 -1.479741,0.0892 -3.24727,0.0171 -3.310462,-0.13493 -3.408856,-0.11882 -3.408856,0.55809 0,0.10965 -0.03055,0.42166 -0.0678,0.69343 -0.155575,1.13322 -0.09556,2.08952 0.144775,2.30702 0.159484,0.14434 2.440836,0.19653 3.827226,0.0876 0.696115,-0.0547 0.903357,-0.0547 1.838718,4.6e-4 1.338503,0.0786 1.923372,0.0779 3.249618,-0.003 1.879357,-0.1161 3.304189,0.0198 3.510691,0.335 0.334922,0.51116 0.14245,5.05117 -0.224482,5.29473 -0.193781,0.12862 -4.469988,0.24566 -5.688256,0.15567 -1.120647,-0.0828 -1.271966,-0.0814 -2.582928,0.0228 -1.368997,0.10875 -3.374232,0.11569 -4.751283,0.0165 -0.947694,-0.0683 -1.008204,-0.0678 -2.52049,0.0202 -0.85221,0.0496 -1.651742,0.0862 -1.776739,0.0814 -0.124989,-0.005 -0.348116,-0.0139 -0.495829,-0.0206 z m 124.454317,-0.0148 c -0.92097,-0.0641 -1.0127,-0.15 -1.12357,-1.0523 -0.0674,-0.54844 -0.055,-2.07102 0.0251,-3.10066 0.0908,-1.16605 0.0967,-3.37149 0.0126,-4.70873 -0.0769,-1.22142 -0.0341,-5.96494 0.0643,-7.13257 0.0417,-0.49426 0.0405,-0.75718 -0.007,-1.44619 -0.13149,-1.92178 -0.029,-6.28083 0.15769,-6.70946 0.1402,-0.32176 0.52886,-0.38045 1.90581,-0.28783 0.66523,0.0447 1.44136,0.062 2.47695,0.0553 1.10259,-0.007 1.79704,0.0101 2.58246,0.0633 1.04456,0.0711 1.10749,0.0711 2.27258,-0.007 1.10001,-0.0736 1.40472,-0.077 3.71645,-0.041 2.18733,0.0341 2.61957,0.0307 3.28992,-0.0266 2.60953,-0.22323 2.47606,-0.38538 2.4627,2.99186 -0.0128,3.24451 0.28892,2.981 -3.31248,2.89257 -1.24607,-0.0307 -2.04861,-0.0295 -2.84616,0.003 -1.10652,0.0461 -2.64384,0.0118 -3.93023,-0.0879 -2.07359,-0.16042 -2.0986,-0.13733 -2.10422,1.94312 -0.005,1.71335 0.12157,1.80375 2.31192,1.65608 0.36422,-0.0245 1.37759,-0.044 2.25192,-0.0432 1.10121,7.6e-4 2.14301,-0.0272 3.39036,-0.0914 3.67322,-0.18918 3.49677,-0.30502 3.59879,2.36274 0.13326,3.48486 0.12063,3.50261 -2.30606,3.24205 -1.07543,-0.11547 -1.07543,-0.11547 -2.51827,-0.0258 -1.43642,0.0893 -1.45083,0.0893 -3.24025,0.0172 -3.45033,-0.13909 -3.35291,-0.15993 -3.43144,0.73483 -0.022,0.2494 -0.0578,0.57886 -0.0802,0.73212 -0.1212,0.8381 -0.0402,1.91125 0.15766,2.09038 0.15972,0.14454 2.44466,0.19751 3.82853,0.0888 0.69611,-0.0547 0.90337,-0.0547 1.83872,4.7e-4 1.33831,0.0786 1.8943,0.0779 3.2813,-0.005 1.82694,-0.10841 3.29141,0.0195 3.47763,0.3036 0.26361,0.40231 0.18898,4.74125 -0.0891,5.18178 -0.16485,0.26113 -3.95089,0.45629 -5.84289,0.30121 -0.99066,-0.0813 -1.33527,-0.0782 -2.58248,0.0223 -1.34389,0.1083 -3.40021,0.1151 -4.73108,0.0156 -0.9053,-0.0677 -0.97087,-0.0671 -2.49982,0.0208 -1.62997,0.0937 -1.74049,0.0959 -2.45851,0.0459 z m -71.668663,-0.0812 c -1.569854,-0.0935 -2.928899,-0.10058 -3.966671,-0.0206 -1.710044,0.1318 -2.015944,0.0908 -2.059041,-0.27577 -0.203952,-1.73537 -0.17955,-1.85654 0.593641,-2.94741 0.523624,-0.73875 1.67188,-2.50031 1.939236,-2.97501 0.07675,-0.13635 0.368778,-0.569 0.648856,-0.96144 0.280066,-0.39243 0.855715,-1.29424 1.279226,-2.004 0.4235,-0.70976 1.02589,-1.68094 1.338637,-2.15818 0.312759,-0.47724 0.621075,-0.96068 0.685162,-1.0743 0.170431,-0.30216 1.403943,-2.08084 2.02147,-2.91485 1.951211,-2.63525 2.180113,-3.05441 1.743254,-3.19212 -0.607929,-0.19163 -3.870767,-0.24805 -6.186446,-0.10695 -1.086151,0.0662 -2.872364,0.0239 -3.198504,-0.0757 -0.38132,-0.11647 -0.385806,-0.13886 -0.436199,-2.17624 -0.0226,-0.91151 -0.05314,-1.93672 -0.06802,-2.27824 -0.0254,-0.58295 0.03692,-0.95963 0.160441,-0.97071 1.294421,-0.116 9.707061,-0.18357 11.145106,-0.0896 0.466799,0.0306 0.895691,0.0223 1.941933,-0.0371 1.315936,-0.0748 1.370211,-0.0748 2.712316,0.003 0.957664,0.0557 1.597601,0.0722 2.128029,0.0547 1.501034,-0.0496 1.52707,-0.0358 1.58008,0.83634 0.06199,1.0194 0.142606,0.86093 -2.055427,4.03858 -0.301838,0.43638 -0.601942,0.88637 -0.66689,1.00001 -0.06501,0.11362 -0.376857,0.57397 -0.693139,1.02299 -0.364683,0.51775 -0.791674,1.19996 -1.16721,1.86484 -0.449043,0.79506 -0.789178,1.32673 -1.407344,2.19993 -0.448361,0.63331 -1.03794,1.51405 -1.310197,1.9572 -0.784222,1.27652 -1.936104,3.08669 -2.550476,4.00803 -1.059791,1.58931 -0.971112,1.64799 2.142271,1.41775 1.343616,-0.0994 1.789213,-0.11359 3.932502,-0.12564 1.329463,-0.008 2.649627,-0.0177 2.933699,-0.0229 1.039808,-0.0185 0.99256,-0.12694 0.989136,2.27138 -0.0056,4.20594 0.141477,3.92275 -1.961188,3.76591 -0.523871,-0.0391 -0.912206,-0.0381 -1.859385,0.005 -1.128968,0.0507 -1.271833,0.0486 -2.506071,-0.0376 -1.295718,-0.0903 -1.321228,-0.0906 -2.541157,-0.0202 -1.813066,0.10461 -3.73004,0.11155 -5.281602,0.0191 z m -29.192222,-0.0213 c -1.243884,-0.0885 -1.339398,-0.1218 -1.384241,-0.48249 -0.08827,-0.70953 -0.08279,-1.11352 0.0377,-2.8092 0.122758,-1.72679 0.122758,-1.72679 0.04553,-3.18403 -0.08593,-1.62095 -0.102373,-3.38535 -0.04576,-4.89343 0.02697,-0.71851 0.02238,-1.29769 -0.01611,-2.06623 -0.04139,-0.82624 -0.04308,-1.26416 -0.0078,-1.93532 0.120522,-2.27042 0.146288,-3.88857 0.09387,-5.89425 -0.08492,-3.2503 -0.08761,-3.2466 2.268195,-3.13331 2.911143,0.14004 4.718459,0.17312 5.807731,0.1063 1.229674,-0.0754 1.801732,-0.0803 2.559461,-0.0216 0.295438,0.0229 1.160049,0.0586 1.921358,0.0796 1.501896,0.0412 1.65474,0.0615 2.499827,0.33222 2.319549,0.74317 3.458307,1.48584 4.471074,2.91589 1.330312,1.87845 1.581747,2.49041 1.72809,4.20602 0.260006,3.0482 -1.046219,5.83981 -3.32746,7.11126 -0.238613,0.133 -0.561855,0.31291 -0.71829,0.39981 -0.156446,0.087 -0.360979,0.17767 -0.454513,0.2017 -0.534724,0.1374 -0.567573,0.15734 -0.495173,0.30052 0.144575,0.28592 2.407323,3.42753 2.951466,4.09782 0.129146,0.15909 0.501997,0.66111 0.828562,1.11563 0.326564,0.45452 0.953367,1.24475 1.3929,1.75608 1.587711,1.84706 1.588573,1.84628 -2.019323,1.80387 -1.527529,-0.018 -2.670907,-0.0118 -3.260073,0.0178 -1.281811,0.0641 -1.218463,0.0982 -2.077569,-1.11427 -0.299825,-0.42314 -0.9275,-1.28066 -1.394847,-1.90563 -0.524989,-0.70204 -1.042919,-1.4521 -1.355263,-1.96268 -0.507345,-0.82931 -1.866837,-2.68939 -2.075511,-2.83972 -0.254399,-0.18329 -1.972354,-0.23114 -2.195225,-0.0612 -0.299287,0.22828 -0.377181,1.57171 -0.218496,3.76831 0.30958,4.28547 0.334262,4.22544 -1.686236,4.10213 -0.896877,-0.0547 -1.148447,-0.0559 -1.787523,-0.009 -0.887513,0.0652 -1.139171,0.0649 -2.086632,-0.002 z m 9.955853,-13.01647 c 2.423467,-0.15609 3.184115,-0.76459 3.183624,-2.54681 -7.61e-4,-2.94873 -1.236029,-3.59862 -6.230034,-3.27788 -1.566565,0.10058 -1.570761,0.10741 -1.332293,2.15571 0.07295,0.62604 0.08402,0.9338 0.07441,2.05167 -0.01141,1.31516 -0.01141,1.31516 0.08291,1.39188 0.296076,0.24097 2.310286,0.34853 4.221485,0.22543 z m 0.539299,-14.17661 c -2.715728,-0.006 -14.169496,-0.0308 -25.452812,-0.055 -27.550924,-0.0593 -36.9270571,-0.11956 -34.3778233,-0.22068 4.4491863,-0.17651 38.8199263,-0.51702 53.0542323,-0.52561 2.499827,-9.9e-4 2.499827,-9.9e-4 2.169268,-0.17599 -1.253528,-0.66161 -2.104208,-1.7977 -2.404536,-3.21131 -0.115754,-0.54482 -0.115039,-10.8692801 7.6e-4,-11.3957601 0.417235,-1.89637 1.749148,-3.21611 3.664006,-3.6305 0.547589,-0.11851 89.653428,-0.1191 90.192018,-6e-4 1.93243,0.42516 3.25696,1.74688 3.67184,3.66399 0.12978,0.59966 0.11609,10.8392801 -0.0152,11.4042001 -0.33804,1.45413 -1.13229,2.4972 -2.42923,3.19016 -0.28924,0.15454 -0.28924,0.15454 0.14461,0.15585 17.18425,0.052 49.19875,0.44759 47.26951,0.58427 -1.95003,0.13815 -100.05353,0.29535 -135.486633,0.21709 z m 69.912583,-4.26821 c 2.05034,-0.4538 3.18093,-1.18246 4.01562,-2.58804 0.39896,-0.67185 0.50999,-0.94117 0.5698,-1.38216 0.0262,-0.19293 0.0744,-0.49964 0.10708,-0.68155 0.18697,-1.03981 0.1101,-2.21411 -0.20296,-3.1014 -0.0624,-0.17716 -0.60301,-1.13829 -0.81758,-1.45385 -2.13731,-3.1431501 -8.55806,-2.7095401 -10.26583,0.69327 -1.45516,2.89955 -0.4798,6.54645 2.07841,7.77117 1.47337,0.70537 3.31512,1.00824 4.51548,0.74256 z m -1.67834,-2.64755 c -3.16734,-0.46409 -3.44692,-5.19793 -0.35391,-5.99263 1.67654,-0.43075 3.25445,0.47917 3.60867,2.081 0.52251,2.36284 -1.03664,4.23665 -3.25476,3.91163 z m -63.957678,2.64323 c 1.428188,-0.1334 2.488427,-0.58093 3.35721,-1.41712 0.242126,-0.23304 0.244297,-0.22753 -0.387126,-0.98496 -1.076216,-1.29096 -1.058527,-1.28006 -1.524789,-0.9397 -2.705793,1.97512 -5.498385,0.34075 -5.01929,-2.93757 0.313765,-2.14701 2.799819,-3.07337 4.736561,-1.76495 0.495777,0.33493 0.448036,0.35511 1.377092,-0.58229 1.011547,-1.0206401 1.007865,-0.9334701 0.06758,-1.5987701 -0.944216,-0.66807 -1.252497,-0.81122 -2.09208,-0.97138 -3.94764,-0.75307 -6.947159,1.55167 -7.152633,5.4958601 -0.05952,1.14316 0.110428,1.94517 0.63478,2.99565 0.552266,1.10637 1.751743,2.11756 2.841776,2.39575 0.147708,0.0377 0.393795,0.10618 0.546851,0.15212 0.648934,0.19493 1.599403,0.25214 2.614082,0.15736 z m 27.394834,0 c 1.435125,-0.13419 2.496204,-0.578 3.336544,-1.3955 0.25581,-0.24887 0.25238,-0.26879 -0.12396,-0.71646 -0.17612,-0.20952 -0.46447,-0.55886 -0.64076,-0.77631 -0.587185,-0.72429 -0.696674,-0.76818 -1.126529,-0.45158 -2.769007,2.0395 -5.819691,0.0412 -4.960719,-3.24935 0.515456,-1.9747 3.039383,-2.70381 4.796329,-1.38558 0.35731,0.26811 0.333021,0.28051 1.240399,-0.63309 1.04119,-1.0483201 1.03381,-0.9506601 0.12093,-1.5983201 -0.931396,-0.66082 -1.296783,-0.83226 -2.106907,-0.98859 -3.206671,-0.61883 -5.877714,0.80143 -6.853334,3.6440901 -1.019838,2.97147 0.372325,6.35501 2.950458,7.17095 1.316619,0.41667 2.067321,0.50133 3.367549,0.37974 z m -19.556861,-0.21567 c 0.09723,-0.0772 0.120666,-1.27864 0.117466,-6.02232 -0.0023,-3.7509001 -0.01286,-4.4809601 -0.06701,-4.7434001 -0.02686,-0.1304 -2.873528,-0.12863 -2.968875,9.9e-4 -0.0556,0.0761 -0.05784,5.8359301 -0.0034,6.9108301 0.01398,0.27271 0.0078,0.78402 -0.01421,1.13629 -0.03849,0.62179 0.02115,2.60333 0.08011,2.66207 0.09712,0.0969 2.738351,0.14745 2.855179,0.0547 z m 29.907395,-0.0101 c 0.71586,4.6e-4 1.59905,0.009 1.96267,0.018 1.01631,0.0264 0.97015,0.10819 0.90647,-1.60466 -0.0436,-1.17456 0.0204,-1.12562 -1.31966,-1.00771 -0.31816,0.028 -1.30062,0.0558 -2.18325,0.0619 -1.99053,0.0137 -1.78359,0.13792 -1.73544,-1.04133 0.019,-0.46655 0.0326,-1.1272 0.03,-1.46808 -0.002,-0.34088 -0.007,-1.74566 -0.0101,-3.12171 -0.006,-3.0582101 0.23621,-2.7996301 -2.52649,-2.6937101 -0.66534,0.0255 -0.66214,0 -0.53328,4.2866001 0.0298,0.99087 0.032,1.96931 0.007,2.93061 -0.0229,0.86315 -0.0232,1.6187 -7.6e-4,1.88004 0.0246,0.28865 0.0223,0.53917 -0.007,0.73818 -0.15388,1.05092 -0.18982,1.02371 1.33459,1.01068 0.66208,-0.006 1.38041,0.006 1.59629,0.0243 0.21591,0.019 0.56919,0.0236 0.78508,0.0101 0.21589,-0.0134 0.97824,-0.0239 1.6941,-0.0233 z m 7.06563,0.0194 c 0.63115,0.0229 1.06046,0.0216 3.89706,-0.0114 2.54366,-0.0296 2.27917,0.1451 2.27983,-1.50541 4.8e-4,-1.16564 -0.0304,-1.1854 -1.69753,-1.08199 -0.44787,0.0277 -0.90594,0.03 -1.27622,0.006 -0.34496,-0.0223 -0.75269,-0.0222 -1.01233,4.6e-4 -1.3355,0.11553 -1.7363,0.006 -1.7363,-0.4773 0,-1.19686 0.0128,-1.21126 1.04497,-1.18608 0.45929,0.0112 1.03031,0.019 1.26892,0.0173 1.61502,-0.0112 1.96567,-0.0118 2.32994,-0.005 0.59017,0.0118 0.58572,0.0195 0.57481,-0.99697 -0.0186,-1.73383 0.33076,-1.55997 -2.9551,-1.47059 -1.55166,0.0422 -2.06284,0.0277 -2.15123,-0.0606 -0.12635,-0.12636 -0.10371,-1.35314 0.0273,-1.48438 0.0648,-0.0649 -0.008,-0.0641 2.76273,-0.0274 2.90167,0.0384 2.58129,0.18594 2.60359,-1.1994501 0.0257,-1.59434 0.32536,-1.41552 -2.33271,-1.39176 -2.73193,0.0245 -2.54157,0.025 -4.10293,-0.0137 -1.89617,-0.047 -1.88613,-0.0476 -1.94013,0.0932 -0.0615,0.16022 -0.11679,2.0636701 -0.079,2.7204201 0.0211,0.36543 0.0253,0.83957 0.009,1.05365 -0.0409,0.55164 -0.0467,2.41064 -0.0112,3.52164 0.0204,0.63611 0.0129,1.21366 -0.023,1.77674 -0.11274,1.76777 -0.10596,1.77719 1.23823,1.72828 0.39771,-0.0144 0.9741,-0.0172 1.2809,-0.006 z m 29.81191,-0.0445 c 0.38653,-0.0555 0.36822,-0.0117 0.39982,-0.95894 0.0153,-0.45911 0.041,-1.2345 0.0569,-1.72311 0.0312,-0.95329 0.0346,-0.96791 0.23634,-1.00864 0.23054,-0.0465 3.45272,-0.0278 3.87277,0.0226 0.79705,0.0956 0.80733,0.0808 0.83967,-1.20384 0.0221,-0.87444 -0.008,-1.20177 -0.11985,-1.32582 -0.0673,-0.0743 -2.50146,-0.0815 -4.01041,-0.012 -0.88792,0.041 -0.84147,0.0933 -0.84075,-0.94831 7.6e-4,-1.21314 -0.18246,-1.07777 1.48811,-1.09914 2.11106,-0.0271 2.49702,-0.0253 3.06077,0.0139 0.59158,0.0412 0.6915,0.002 0.70428,-0.27522 0.11256,-2.4423601 0.21007,-2.3491501 -2.42339,-2.3160201 -0.68177,0.009 -2.24595,0.017 -3.47595,0.0187 -1.22999,9.9e-4 -2.26026,0.0179 -2.28947,0.0359 -0.10774,0.0666 -0.1257,1.21126 -0.11408,7.2920601 6e-4,0.2727 -0.006,0.94208 -0.0142,1.4875 -0.0163,1.07762 0.0248,1.83405 0.10596,1.94497 0.0909,0.12442 1.78362,0.16152 2.52333,0.0553 z m -61.453133,-0.031 c 0.04028,-0.0406 0.04811,-0.25139 0.03357,-0.90778 -0.04329,-1.95775 -0.03099,-2.47674 0.0602,-2.54937 0.08392,-0.0668 0.804854,-0.066 0.9789,7.6e-4 0.09063,0.0349 0.691359,0.83965 0.999708,1.33914 0.132235,0.21422 0.402086,0.60469 0.599649,0.86772 0.197574,0.26301 0.473635,0.63785 0.613478,0.83296 0.139842,0.19512 0.284742,0.38005 0.322,0.41097 0.0866,0.072 3.017244,0.10394 3.231668,0.0352 0.234574,-0.0751 0.189071,-0.20714 -0.247922,-0.71945 -0.210206,-0.24646 -0.521655,-0.63803 -0.692098,-0.87016 -0.170443,-0.23213 -0.534723,-0.72606 -0.809508,-1.09761 -0.941306,-1.27281 -0.947739,-1.28478 -0.714642,-1.33141 0.267994,-0.0535 0.903031,-0.44783 1.154645,-0.71679 1.721378,-1.84017 1.042102,-4.8120801 -1.314448,-5.7509301 -0.870542,-0.34681 -0.79642,-0.33866 -3.212413,-0.35345 -1.181732,-0.008 -2.474004,-0.0267 -2.871693,-0.0434 -1.319572,-0.0552 -1.220489,-0.56196 -1.191724,6.0949201 0.01175,2.74108 0.0113,2.98829 -0.0089,3.87111 -0.01287,0.56149 -0.0045,0.80675 0.02898,0.84058 0.114009,0.11527 2.929615,0.15847 3.040593,0.0466 z m 0.393896,-5.79124 c -0.373007,-0.0479 -0.376766,-0.055 -0.351727,-0.67253 0.01185,-0.29102 0.0056,-0.6725 -0.01444,-0.84771 -0.114814,-1.01881 -0.107856,-1.02978 0.688384,-1.08289 2.13803,-0.14262 2.773168,0.22593 2.695701,1.56416 -0.05404,0.93457 -1.079259,1.28748 -3.017925,1.03897 z"
       id="path195" /></g></svg>
